<svg width="197" height="195" viewBox="0 0 197 195" fill="none" xmlns="http://www.w3.org/2000/svg">
<path d="M101.726 127.248C103.585 122.737 106.739 119.79 109.992 116.729C114.271 112.717 122.219 105.258 130.313 106.437C137.209 107.434 136.451 113.578 145.915 118.044C154.841 122.284 158.265 118.09 167.166 122.646C168.487 123.326 177.804 128.246 179.931 137.541C180.811 141.395 180.591 146.677 178.757 147.176C176.679 147.742 175.97 136.634 167.655 132.281C161.297 128.949 152.542 130.558 151.833 132.939C151.075 135.455 159.854 137.11 164.818 145.861C166.995 149.669 167.459 153.138 168.12 157.899C168.731 162.387 169.416 171.591 167.166 172.135C165.307 172.589 164.305 166.445 157.482 161.412C153.887 158.76 150.048 157.672 142.369 155.496C135.449 153.546 131.952 152.594 130.069 154.181C127.281 156.538 129.433 162.523 129.824 163.589C132.563 171.206 139.557 174.38 139.043 175.196C138.359 176.216 125.594 173.269 115.176 163.815C106.275 155.722 96.3217 140.329 101.726 127.248Z" fill="#788BFF"/>
<path d="M181.57 153.523C181.472 154.158 180.958 157.695 183.208 159.962C185.702 162.455 188.735 160.551 191.792 163.022C194.604 165.289 194.237 168.69 195.093 168.622C196.071 168.554 197.563 163.952 195.46 161.163C194.799 160.279 193.185 159.485 189.982 157.944C186.705 156.357 186.265 156.425 185.409 155.564C183.281 153.433 183.599 150.644 182.841 150.644C182.254 150.644 181.741 152.322 181.57 153.523Z" fill="#788BFF"/>
<path d="M160.539 180.138C159.169 182.042 159.316 184.083 159.438 186.236C159.585 188.435 159.683 190.226 161.077 191.836C162.666 193.672 165.307 194.443 165.65 194.035C165.919 193.718 164.721 192.856 163.645 190.975C163.522 190.748 161.933 187.959 162.006 184.695C162.079 180.614 164.672 178.188 164.011 177.758C163.522 177.418 161.639 178.597 160.539 180.138Z" fill="#788BFF"/>
<path d="M170.345 142.551C174.453 145.067 172.204 150.893 174.894 154.294C175.163 154.634 175.798 154.294 175.529 153.954C172.742 150.417 175.114 144.659 170.712 141.961C170.321 141.712 169.954 142.301 170.345 142.551V142.551Z" fill="#788BFF"/>
<path d="M168.878 126.137C173.28 129.266 176.336 133.732 177.559 138.742C177.657 139.173 178.366 138.992 178.268 138.561C176.997 133.369 173.818 128.79 169.269 125.571C168.853 125.276 168.487 125.865 168.878 126.137V126.137Z" fill="#5222D0"/>
<path d="M154.694 138.697C158.216 141.372 160.979 144.795 162.691 148.717C162.862 149.125 163.571 148.944 163.4 148.536C161.615 144.5 158.851 140.987 155.208 138.221C154.865 137.949 154.327 138.425 154.694 138.697V138.697Z" fill="#5222D0"/>
<path d="M164.403 152.458C165.063 154.09 165.503 155.745 165.674 157.468C165.723 157.899 166.457 157.899 166.408 157.468C166.212 155.677 165.772 153.954 165.087 152.276C164.965 151.868 164.256 152.05 164.403 152.458V152.458Z" fill="#5222D0"/>
<path d="M126.767 156.221C126.156 159.644 126.865 163.067 128.87 166.015C129.115 166.377 129.751 166.037 129.506 165.674C127.623 162.909 126.89 159.644 127.477 156.402C127.55 155.972 126.841 155.79 126.767 156.221V156.221Z" fill="#5222D0"/>
<path d="M129.849 167.873C130.729 169.37 131.854 170.707 133.199 171.863C133.541 172.158 134.055 171.682 133.712 171.387C132.416 170.254 131.34 168.962 130.484 167.533C130.264 167.148 129.629 167.488 129.849 167.873V167.873Z" fill="#5222D0"/>
<path d="M101.775 133.324C101.579 135.478 101.799 137.609 102.46 139.694C102.582 140.125 103.291 139.944 103.169 139.513C102.533 137.473 102.313 135.432 102.509 133.324C102.558 132.893 101.824 132.893 101.775 133.324V133.324Z" fill="#5222D0"/>
<path d="M103.193 142.007C103.585 143.775 104.294 145.407 105.321 146.949C105.565 147.312 106.201 146.971 105.957 146.609C104.979 145.113 104.294 143.548 103.903 141.825C103.805 141.417 103.096 141.599 103.193 142.007V142.007Z" fill="#5222D0"/>
<path d="M39.3431 0.294701C38.6584 2.01764 37.8269 4.37535 37.0199 7.23181C36.1885 10.2016 34.2322 18.0229 34.4278 28.3152C34.6234 38.2448 36.7265 45.5446 38.6584 52.051C41.6663 62.2073 45.3344 69.5071 47.5109 73.7464C47.5109 73.7464 54.4314 87.3259 65.9005 101.88C67.9302 104.442 70.5224 107.684 70.5224 107.684C72.4054 110.019 74.0194 111.969 75.1443 113.374C76.0491 114.326 77.1984 115.392 78.6902 116.412C81.478 118.339 84.2413 119.314 86.1732 119.812C89.3523 117.296 92.5313 114.757 95.7104 112.241C97.1532 113.51 98.6205 114.757 100.063 116.027C102.069 114.122 103.854 112.603 105.248 111.492C111.312 106.618 116.325 104.125 117.499 103.535C118.502 103.036 119.358 102.651 119.945 102.402C119.04 100.724 118.135 99.0465 117.23 97.3462C118.697 96.1674 120.385 94.9205 122.268 93.6963C124.811 92.0414 127.256 90.7038 129.482 89.661C129.457 87.7567 129.188 84.8776 127.843 81.7037C126.841 79.3233 125.643 77.7137 125.129 77.0336C119.48 69.4844 136.133 90.2958 114.369 61.5045C105.932 50.3507 101.726 44.7511 99.7943 42.4388C93.754 35.1163 89.0099 30.1061 85.6352 26.5469C79.1792 19.7231 76.2692 17.1841 73.9216 15.3251C70.718 12.7407 67.1722 9.95224 61.8167 7.36783C58.442 5.75824 55.6542 4.8741 51.5947 3.58189C46.5816 1.99497 42.351 0.952139 39.3431 0.294701Z" fill="white"/>
<path d="M38.585 0.702765C33.2784 15.8692 33.2784 32.2371 37.0933 47.6983C38.047 51.5749 39.2453 55.4062 40.6636 59.1468C41.3728 61.0511 42.2287 62.91 42.9868 64.7917C43.2558 65.4491 43.3047 66.1066 43.6226 66.764C44.0872 67.7842 44.5763 68.8043 45.0654 69.8245C45.9702 71.7288 46.9239 73.6104 47.9265 75.4921C48.9292 77.351 50.1519 79.1193 51.0567 81.0009C51.3991 81.7037 51.6925 82.4518 52.0838 83.1319C52.5973 83.9934 53.3554 84.6509 53.8934 85.4897C55.0183 87.2353 56.0943 89.0262 57.2681 90.7492C62.6236 98.7518 68.7127 106.301 74.9486 113.714C75.2421 114.054 75.7556 113.578 75.4621 113.238C69.9599 106.686 64.58 100.044 59.738 93.0842C58.5397 91.3613 57.3904 89.6383 56.2655 87.87C55.7275 87.0312 55.1895 86.1698 54.6759 85.3083C54.1624 84.4695 53.4777 83.8801 52.9397 83.0639C52.4995 82.3838 52.1816 81.6584 51.8637 80.9329C51.4235 79.9581 50.8366 79.074 50.2986 78.1445C49.2715 76.3989 48.3178 74.6306 47.413 72.8396C46.4593 70.958 45.5545 69.0537 44.6497 67.1494C44.2584 66.3106 44.1117 65.4264 43.7449 64.565C43.3536 63.6355 42.9379 62.706 42.5466 61.7539C41.0549 58.1039 39.7588 54.386 38.6828 50.6001C36.5308 42.9375 35.2836 35.0709 35.1614 27.1363C35.0391 18.2269 36.3596 9.31748 39.3431 0.816116C39.4164 0.476062 38.7073 0.2947 38.585 0.702765V0.702765Z" fill="black"/>
<path d="M38.9274 0.702764C43.0112 0.997477 47.1685 2.31235 51.0078 3.55922C54.7982 4.80609 58.5397 6.1663 62.0123 8.02527C68.9328 11.7432 75.0464 16.6173 80.622 21.9222C86.3688 27.3857 91.602 33.3933 96.6641 39.4009C101.702 45.3859 106.519 51.5749 111.166 57.8319C116.301 64.7917 121.241 71.8875 126.083 79.0513C126.327 79.414 126.963 79.074 126.718 78.7112C117.842 65.6305 108.671 52.7084 98.4737 40.4665C88.6186 28.6099 78.0543 16.504 64.2132 8.456C60.4472 6.25698 56.4122 4.67006 52.255 3.24184C48.0488 1.81361 43.4514 0.340039 38.9518 -1.52588e-05C38.4627 -1.52588e-05 38.4627 0.680093 38.9274 0.702764V0.702764Z" fill="black"/>
<path d="M76.0002 113.51C87.3959 102.742 100.21 93.2882 114.076 85.399C117.988 83.1773 121.95 81.0916 126.009 79.142C126.425 78.9379 126.058 78.3485 125.642 78.5525C111.239 85.535 97.7401 94.127 85.5863 104.125C82.1138 106.981 78.7391 109.951 75.4866 113.034C75.1443 113.351 75.6578 113.828 76.0002 113.51V113.51Z" fill="black"/>
<path d="M75.291 114.032C78.2011 117.047 81.9915 119.178 86.2221 120.13C86.6867 120.243 86.8824 119.586 86.4177 119.472C82.285 118.52 78.6413 116.48 75.8046 113.533C75.4866 113.215 74.9731 113.714 75.291 114.032V114.032Z" fill="black"/>
<path d="M125.887 79.3233C127.795 82.4292 128.895 85.8524 129.139 89.4116C129.164 89.8423 129.898 89.8423 129.873 89.4116C129.629 85.7163 128.479 82.2024 126.523 78.9833C126.303 78.5979 125.667 78.9379 125.887 79.3233V79.3233Z" fill="black"/>
<path d="M86.6622 119.948C99.892 108.749 114.222 98.7291 129.506 90.0464C129.898 89.8197 129.531 89.2302 129.139 89.4569C113.831 98.1623 99.4274 108.228 86.1487 119.472C85.8063 119.767 86.3199 120.243 86.6622 119.948V119.948Z" fill="black"/>
<path d="M95.8816 112.649C97.2265 113.873 98.5715 115.097 99.9165 116.344C100.063 116.48 100.308 116.48 100.43 116.344C104.392 112.445 108.842 108.999 113.709 106.12C114.883 105.417 116.081 104.759 117.304 104.125C118.086 103.717 119.578 103.331 120.042 102.56C120.532 101.79 119.798 100.747 119.407 100.089C118.722 98.9331 117.915 97.8676 117.035 96.8701C116.741 96.5301 116.228 97.0062 116.521 97.3462C117.377 98.321 118.135 99.3412 118.771 100.429C118.918 100.656 119.235 101.041 119.26 101.314C119.162 101.722 119.064 102.107 118.966 102.515C118.844 102.583 118.722 102.628 118.6 102.696C118.111 103.036 117.475 103.24 116.937 103.535C114.809 104.646 112.731 105.848 110.725 107.14C106.813 109.702 103.193 112.626 99.9165 115.845C100.088 115.845 100.259 115.845 100.43 115.845C99.0851 114.621 97.7401 113.397 96.3951 112.15C96.0527 111.855 95.5392 112.331 95.8816 112.649V112.649Z" fill="black"/>
<path d="M40.3213 56.7664C46.337 50.192 53.3799 44.5018 60.5939 39.0836C67.8324 33.6654 75.4133 28.5872 83.8989 24.9826C84.3391 24.8013 83.9478 24.2119 83.5321 24.3932C75.1198 27.9524 67.6123 32.9853 60.4228 38.3354C53.0864 43.8217 45.9213 49.6026 39.8077 56.2676C39.4898 56.6304 40.0034 57.1064 40.3213 56.7664V56.7664Z" fill="black"/>
<path d="M84.0456 28.1565C83.2386 28.2018 82.8963 26.955 83.8011 26.8869C84.119 26.8643 84.4858 27.0003 84.6081 27.295C84.7793 27.7257 84.3391 28.1792 83.8745 28.1792C83.5321 28.1792 83.5076 28.7006 83.8745 28.7006C84.6325 28.7006 85.2928 28.0431 85.1705 27.3404C85.0727 26.7509 84.4125 26.3882 83.8011 26.4109C83.1408 26.4562 82.6273 26.955 82.7007 27.5671C82.774 28.1792 83.3609 28.7459 84.0456 28.7006C84.4125 28.6552 84.4125 28.1338 84.0456 28.1565V28.1565Z" fill="black"/>
<path d="M121.387 78.3032C121.412 78.3032 121.412 78.3032 121.436 78.2805C121.363 78.2805 121.29 78.2578 121.216 78.2578C121.485 78.3712 121.339 77.8951 121.314 77.8271C121.314 77.7591 121.339 77.6684 121.363 77.6004C121.436 77.4644 121.559 77.3283 121.705 77.2603C122.023 77.1243 122.366 77.351 122.463 77.6457C122.659 78.2352 121.73 78.5299 121.485 78.0085C121.339 77.7137 120.874 77.9631 121.021 78.2578C121.314 78.8926 122.317 78.9379 122.806 78.4619C123.368 77.8951 122.953 76.943 122.194 76.7389C121.387 76.5349 120.605 77.3283 120.801 78.0538C120.874 78.3485 121.29 78.7112 121.608 78.4165C121.852 78.1898 121.608 77.6911 121.241 77.8271C120.923 77.9404 121.07 78.4165 121.387 78.3032V78.3032Z" fill="black"/>
<path opacity="0.15" d="M39.3431 0.430717C43.2069 2.74309 48.4401 6.14363 54.1624 10.7004C57.7083 13.5341 66.9032 21.1287 78.3967 35.8644C90.8684 51.8469 97.1043 59.8269 98.3515 68.7363C98.9873 73.3837 99.8676 86.6232 87.2736 102.9C92.4824 99.2278 97.7156 95.5326 102.924 91.86C105.199 95.3285 107.448 98.7971 109.723 102.266C107.277 103.943 104.832 105.598 102.386 107.276C103.585 108.613 104.783 109.928 105.981 111.266C107.448 109.951 109.209 108.545 111.239 107.162C114.369 105.031 117.377 103.513 119.969 102.402C118.991 100.656 118.037 98.8878 117.059 97.1422C121.265 94.5804 125.471 91.996 129.677 89.4343C129.457 87.5073 128.944 84.7189 127.599 81.5904C126.034 77.9178 124.053 75.4694 123.295 74.5172C117.817 67.6481 120.483 69.3031 109.014 54.3633C100.772 43.6176 96.2239 37.61 88.9365 29.8341C84.2657 24.8466 81.16 21.5594 76.1958 17.5014C70.9137 13.1714 64.5066 8.02526 54.7249 4.262C48.489 1.90429 43.0113 0.906794 39.3431 0.430717Z" fill="#494949"/>
<path opacity="0.11" d="M117.866 66.2879C117.646 67.7388 117.206 69.9605 116.105 72.4769C113.562 78.3032 109.649 80.8422 101.482 88.5048C97.6178 92.132 91.8711 97.5049 92.409 98.0943C92.9226 98.6611 99.2074 94.1724 110.187 87.462C116.619 83.5173 122.023 80.4568 125.569 78.4619C123.001 74.4039 120.434 70.3459 117.866 66.2879Z" fill="#494949"/>
<path opacity="0.08" d="M126.083 79.142C125.74 79.21 126.572 81.681 125.569 84.7642C124.836 87.0312 123.588 88.1194 120.532 91.5426C119.211 93.0162 117.279 95.2379 114.98 98.0943C119.773 95.0565 124.567 92.0187 129.36 88.9809C127.183 80.9556 126.376 79.0966 126.083 79.142Z" fill="#494949"/>
<path d="M84.7793 153.342C84.8527 153.999 85.1217 154.521 85.5374 155.155C87.2981 157.785 90.2082 159.395 92.3112 160.324C91.4798 162.75 90.4772 166.241 89.7435 170.503C89.0588 174.607 88.2518 179.39 89.3034 179.707C89.6702 179.821 90.7462 179.503 100.748 161.14C102.142 158.579 103.291 156.448 104.049 154.997C98.7183 152.775 93.4117 150.531 88.0806 148.309C87.5671 148.672 84.5103 150.735 84.7793 153.342Z" fill="#161616" stroke="#161616" stroke-width="2"/>
<path d="M73.6281 103.195C69.1285 106.097 66.2184 108.908 63.6263 111.447C62.5747 112.467 57.5371 117.432 52.2305 125.231C49.8829 128.677 48.1467 131.714 46.9484 134.004C47.0951 134.934 47.4375 136.271 48.3423 137.609C49.3449 139.105 50.4698 139.762 52.2305 141.213C54.3825 142.982 55.1651 144.024 56.4122 145.203C58.8332 147.516 62.2324 149.261 68.9329 152.684C77.3452 156.969 81.8692 158.533 83.2631 159.009C84.9749 159.576 86.4177 160.007 87.4448 160.302C87.9339 158.193 88.5208 155.949 89.2544 153.591C89.9147 151.483 90.6239 149.511 91.333 147.674C86.1243 144.138 80.7688 140.17 75.3399 135.682C73.4569 134.14 71.6473 132.576 69.911 131.034C71.6717 129.062 74.1416 126.478 77.2718 123.689C78.1766 122.873 80.084 121.195 82.4072 119.427C85.3417 117.228 89.768 114.281 95.8815 111.56C96.9331 105.054 95.6859 98.9785 91.8466 97.0062C87.0535 94.5578 79.7661 99.2505 73.6281 103.195Z" fill="white"/>
<path d="M68.6883 106.573C60.0315 113.374 52.8664 121.785 47.7799 131.193C47.2663 132.168 46.5327 133.256 46.4349 134.344C46.337 135.5 47.0951 136.384 47.7799 137.269C49.4183 139.332 51.2768 141.259 53.2576 143.05C57.4638 146.79 62.3057 149.873 67.3922 152.48C73.6526 155.7 80.2797 158.261 86.8824 160.8C87.3225 160.959 87.5182 160.302 87.078 160.143C76.2692 155.972 65.2403 151.71 56.2166 144.614C54.1869 143.004 52.255 141.281 50.5187 139.4C49.6139 138.402 48.7091 137.382 47.9266 136.316C47.4375 135.659 47.0707 135.047 47.193 134.208C47.3152 133.392 47.8288 132.621 48.22 131.873C50.5677 127.452 53.3799 123.258 56.6079 119.336C60.3005 114.825 64.5311 110.722 69.2019 107.072C69.5687 106.777 69.0551 106.301 68.6883 106.573V106.573Z" fill="black"/>
<path d="M89.4256 114.394C81.0378 119.427 73.7015 125.797 67.7591 133.233C67.4901 133.596 68.1259 133.936 68.3949 133.573C74.2639 126.228 81.5269 119.926 89.7925 114.961C90.1837 114.757 89.8169 114.168 89.4256 114.394V114.394Z" fill="black"/>
<path d="M69.4953 131.374C76.367 137.133 83.4343 142.664 90.7217 147.946C91.0885 148.218 91.6021 147.742 91.2352 147.47C83.9478 142.188 76.8561 136.656 70.0089 130.898C69.6665 130.604 69.153 131.08 69.4953 131.374V131.374Z" fill="black"/>
<path d="M90.7462 147.856C89.2055 151.891 88.0073 156.017 87.1269 160.211C87.0291 160.642 87.7383 160.823 87.8361 160.392C88.7164 156.198 89.9392 152.072 91.4553 148.037C91.6021 147.629 90.8929 147.448 90.7462 147.856V147.856Z" fill="black"/>
<path opacity="0.11" d="M83.0919 111.855C79.7172 112.127 77.174 114.417 69.3241 124.528C66.3163 128.405 63.7975 131.782 61.8656 134.457C64.6534 136.271 66.8543 137.767 68.2482 138.742C76.0491 144.16 79.326 147.198 85.9531 150.508C87.3959 151.233 88.5942 151.755 89.3034 152.05C89.8658 150.621 90.4283 149.193 90.9662 147.765C89.1077 146.269 87.2492 144.795 85.3662 143.299C80.1819 139.218 75.0465 135.274 69.9355 131.442C72.063 128.677 74.0683 126.591 75.5356 125.163C79.864 120.969 84.1679 118.135 87.5182 115.959C88.6675 115.21 89.6457 114.621 90.2815 114.236C87.1269 111.991 84.657 111.719 83.0919 111.855Z" fill="#494949"/>
<path opacity="0.08" d="M84.0701 117.772C81.9671 118.226 79.1548 119.11 76.2936 120.878C69.2997 125.208 66.9521 131.828 66.2674 134.095C70.0333 136.815 73.9216 139.558 77.9565 142.301C81.8692 144.976 85.7575 147.516 89.5479 149.964C90.1104 149.216 90.6728 148.445 91.2108 147.697C86.002 144.183 80.5976 140.125 75.1932 135.478C73.4814 134.027 71.843 132.553 70.2779 131.102C71.1338 130.059 72.063 128.994 73.0412 127.906C76.7094 123.87 80.4753 120.538 84.0701 117.772Z" fill="#494949"/>
<path d="M130.362 145.929C132.954 148.196 135.571 150.485 138.163 152.752C137.478 167.216 138.775 170.617 140.144 170.866C142.271 171.251 145.915 164.428 147.505 159.055C148.703 154.974 148.825 151.392 148.703 148.966C144.644 145.611 140.584 142.256 136.525 138.878C134.471 141.236 132.416 143.594 130.362 145.929Z" fill="#161616" stroke="#161616" stroke-width="2"/>
<path d="M79.4727 105.145C79.6928 108.908 82.5295 111.198 82.5295 111.198C84.2902 112.626 86.271 113.011 87.2492 113.125C88.0317 113.419 88.8143 113.737 89.6213 114.032C90.844 115.664 92.6536 117.976 95.0501 120.606C98.2292 124.143 102.509 128.359 112.975 136.339C118.135 140.261 124.787 145.09 132.832 150.395C133.981 149.873 135.351 149.102 136.72 147.969C139.728 145.498 141.122 142.619 141.758 140.987C140.34 139.717 138.237 137.813 135.791 135.455C124.933 125.049 117.695 116.14 112.168 109.293C108.524 104.782 103.854 98.7745 98.6938 91.52C86.8824 94.5124 79.1792 100.316 79.4727 105.145Z" fill="white"/>
<path d="M83.2631 112.059C85.2195 112.694 87.1514 113.306 89.1077 113.941C89.5479 114.077 89.7435 113.419 89.3034 113.283C87.347 112.649 85.4151 112.037 83.4588 111.402C83.0186 111.266 82.823 111.923 83.2631 112.059V112.059Z" fill="black"/>
<path d="M88.3007 113.261C97.4956 124.981 109.405 134.457 121.754 143.231C125.3 145.747 128.895 148.241 132.49 150.712C132.881 150.984 133.223 150.372 132.857 150.123C120.483 141.621 108.035 133.007 97.52 122.533C94.4632 119.495 91.6021 116.276 88.961 112.921C88.6676 112.581 88.0317 112.921 88.3007 113.261V113.261Z" fill="black"/>
<path d="M102.729 97.4596C111.386 109.77 121.143 121.377 131.903 132.168C135.009 135.296 138.212 138.334 141.464 141.304C141.807 141.621 142.32 141.123 141.978 140.828C130.656 130.536 120.287 119.359 110.994 107.457C108.353 104.079 105.81 100.633 103.34 97.1195C103.096 96.7568 102.46 97.0968 102.729 97.4596V97.4596Z" fill="black"/>
<path d="M141.049 140.873C139.63 144.772 136.892 148.4 132.759 150.123C132.319 150.304 132.71 150.893 133.126 150.712C137.43 148.921 140.266 145.113 141.733 141.055C141.905 140.646 141.195 140.465 141.049 140.873V140.873Z" fill="black"/>
<path opacity="0.09" d="M102.753 97.0968C101.359 95.3512 100.186 93.923 99.403 92.9935C98.6205 94.3311 97.5445 96.5754 97.4467 99.3639C97.2266 105.666 102.215 108.364 116.521 123.054C122.757 129.447 126.058 133.301 134.104 140.919C135.987 142.687 137.576 144.16 138.726 145.203C139.606 143.775 140.486 142.347 141.391 140.919C133.639 133.709 127.501 127.203 122.904 122.057C118.477 117.092 114.516 112.649 110.432 107.117C109.38 105.734 106.715 102.039 102.753 97.0968Z" fill="#494949"/>
<path opacity="0.09" d="M107.082 103.467C107.424 105.031 108.133 107.684 109.527 110.767C113.562 119.563 119.529 123.281 130.264 134.276C132.319 136.384 135.498 139.717 139.215 144.024C140.071 142.891 140.926 141.78 141.782 140.646C141 139.966 139.753 138.901 138.237 137.541C135.449 135.047 127.892 128.087 113.464 111.107C111.899 109.293 109.698 106.664 107.082 103.467Z" fill="#494949"/>
<path d="M27.7028 83.4267C27.2137 83.608 26.4801 83.9934 24.3037 87.2353C21.956 90.7265 20.3665 93.1069 19.1927 96.8702C18.1656 100.225 17.9211 103.286 17.9944 105.78C18.1656 106.505 18.2879 107.571 17.8966 108.749C17.3831 110.246 16.4538 110.608 14.6931 112.649C13.9839 113.465 12.8101 114.848 11.8808 116.729C10.8538 118.838 11.3673 119.11 10.3891 121.173C9.21533 123.644 7.47907 125.344 7.18561 125.616C5.57163 127.18 4.78909 127.226 4.07991 128.586C3.27292 130.127 3.51746 131.578 3.59082 132.009C3.63973 132.326 4.15327 135.092 5.88953 135.432C6.35417 135.523 7.0878 135.478 7.38125 135.07C7.84588 134.435 6.76989 133.551 6.57426 132.009C6.40308 130.604 7.06334 129.47 7.47907 128.767C8.72624 126.614 10.169 126.931 11.4896 125.14C12.7612 123.372 11.5629 122.828 12.7857 119.495C13.4704 117.636 14.1551 115.777 15.9892 114.394C16.8206 113.76 17.6276 113.419 18.3857 112.354C19.046 111.424 19.2905 110.495 19.3883 109.86C20.7333 111.855 22.1517 113.147 23.1788 113.941C24.5482 114.984 26.1133 116.208 27.4338 115.755C28.143 115.505 28.7788 114.757 28.6565 114.236C28.5832 113.941 28.2897 113.85 27.5316 113.215C27.5316 113.215 27.2382 112.966 26.5779 112.309C26.1377 111.878 25.5019 111.084 24.9395 109.588C25.1596 109.361 25.722 108.863 26.4801 108.817C27.3115 108.795 27.9474 109.339 28.5832 109.928C29.7814 111.016 29.7325 111.674 30.4906 112.331C31.0775 112.853 32.1535 113.397 34.281 113.261C34.1832 113.011 34.012 112.603 33.7919 112.15C33.0339 110.631 32.6426 110.472 32.5937 109.838C32.5692 109.339 32.7893 109.203 33.7919 107.616C34.6479 106.256 35.0636 105.576 35.088 105.213C35.2103 103.875 33.9631 103.422 33.6941 101.88C33.4496 100.588 34.0609 99.5453 34.5011 98.7291C37.0444 93.9457 38.6584 90.9079 38.1937 88.6182C37.4846 85.0363 31.3221 82.0211 27.7028 83.4267Z" fill="#161616"/>
<path d="M26.5779 84.2428C23.032 87.598 20.7578 91.86 19.2416 96.3034C17.7743 100.633 16.6739 105.576 18.997 109.815C19.2171 110.2 19.8529 109.86 19.6329 109.475C17.3341 105.304 18.5813 100.361 20.073 96.122C21.5403 91.9054 23.7167 87.9154 27.0914 84.7189C27.4093 84.4015 26.8958 83.9254 26.5779 84.2428V84.2428Z" fill="#161616"/>
<path d="M22.9098 103.83C23.2032 103.694 23.4967 103.581 23.7901 103.445C24.0102 103.558 24.2303 103.694 24.4504 103.807C24.7194 104.034 24.9639 104.329 25.1351 104.623C25.4775 105.167 25.6487 105.825 25.5998 106.46C25.5019 107.684 24.5482 108.636 24.3037 109.815C24.1569 110.54 24.6705 111.062 25.1107 111.606C25.8688 112.535 26.7491 113.397 27.7028 114.168C28.0452 114.462 28.5832 113.986 28.2164 113.692C27.605 113.17 26.9937 112.649 26.4557 112.059C25.5753 111.13 24.7928 110.336 25.4041 109.044C25.9421 107.911 26.5046 106.845 26.26 105.553C26.0644 104.555 25.453 103.535 24.4993 102.991C23.6923 102.538 22.7141 102.628 22.274 103.467C22.0539 103.875 22.6897 104.215 22.9098 103.83V103.83Z" fill="#161616"/>
<path d="M19.046 109.906C20.4644 112.014 22.4207 113.76 24.7928 114.916C25.502 115.256 26.8469 116.049 27.7028 115.709C28.5098 115.392 28.3631 114.485 28.143 113.873C27.9963 113.465 27.2871 113.646 27.4338 114.054C27.9963 115.709 25.6242 114.553 25.1596 114.326C24.4015 113.964 23.6923 113.533 23.0076 113.034C21.6626 112.059 20.5622 110.88 19.6574 109.543C19.4373 109.203 18.8015 109.543 19.046 109.906V109.906Z" fill="#161616"/>
<path d="M35.895 89.0942C34.4522 93.583 33.5474 98.2077 33.1317 102.878C33.1072 103.014 33.2539 103.172 33.4007 103.195C34.9413 103.581 34.7212 105.349 34.1588 106.346C33.5963 107.298 32.716 108.092 32.2758 109.112C31.4932 110.948 33.8164 111.538 33.7675 113.147C33.8898 113.034 34.012 112.921 34.1343 112.807C31.9334 112.694 30.0749 111.606 28.9744 109.838C28.1919 108.568 27.2871 108.296 25.722 108.387C25.2574 108.409 25.2574 109.089 25.722 109.067C26.3089 109.044 27.0181 108.976 27.5561 109.248C28.0207 109.498 28.1674 109.928 28.412 110.314C28.8277 110.971 29.3657 111.561 30.0015 112.037C31.1998 112.943 32.5937 113.397 34.1099 113.487C34.3055 113.487 34.4767 113.329 34.4767 113.147C34.5011 112.195 33.8164 111.629 33.2539 110.903C32.0801 109.384 34.012 107.979 34.7701 106.686C35.6016 105.281 35.5771 103.014 33.5719 102.538C33.6697 102.651 33.743 102.764 33.8409 102.855C34.2321 98.2304 35.1614 93.6963 36.5797 89.2529C36.7265 88.8675 36.0173 88.6862 35.895 89.0942V89.0942Z" fill="#161616"/>
<path d="M17.7499 105.984C17.9211 107.344 17.7254 108.681 17.0163 109.906C16.356 111.062 15.28 111.901 14.2285 112.785C12.3699 114.394 11.514 116.163 10.9271 118.43C10.2913 120.833 9.53323 122.76 7.65024 124.573C6.23189 125.911 4.569 127.158 3.68864 128.903C2.83274 130.604 2.95501 132.576 4.05545 134.163C4.69127 135.092 6.8677 136.951 7.69915 135.183C8.04151 134.457 7.65024 133.551 7.38125 132.848C7.1367 132.236 6.8188 131.624 6.8188 130.944C6.8188 129.991 7.4057 129.175 8.09042 128.518C9.75332 126.908 11.8808 126.001 12.6145 123.712C13.0302 122.42 12.7367 121.127 12.8346 119.812C12.9568 118.18 13.7883 116.797 15.0599 115.686C16.9918 113.986 19.5595 112.581 19.5595 109.815C19.5595 109.384 18.8259 109.384 18.8259 109.815C18.8014 112.467 16.0136 113.782 14.2529 115.46C12.8835 116.752 12.1009 118.384 12.0765 120.198C12.052 121.399 12.2721 122.533 11.8319 123.689C11.3429 125.004 10.3158 125.888 9.19087 126.75C7.74806 127.815 6.08517 129.062 6.08517 130.944C6.08517 131.85 6.57425 132.667 6.8677 133.528C6.94107 133.755 7.21007 134.367 7.08779 134.548C6.84325 134.571 6.57425 134.616 6.32971 134.639C5.88953 134.888 5.54717 134.843 5.30263 134.503C4.76463 134.185 4.3 133.233 4.10436 132.689C3.32182 130.558 4.39782 128.654 5.93844 127.112C7.23452 125.797 8.75069 124.687 9.82668 123.19C10.976 121.603 11.3184 119.722 11.8075 117.908C12.1743 116.593 12.6634 115.324 13.6416 114.281C14.4975 113.351 15.5735 112.649 16.4538 111.742C18.0189 110.155 18.7281 108.092 18.4591 105.984C18.4346 105.553 17.701 105.553 17.7499 105.984V105.984Z" fill="#161616"/>
<path d="M1.87901 78.3712C1.36547 78.6432 0.41175 79.1193 0.216115 80.1168C-0.0284287 81.2277 0.827474 82.1345 0.949745 82.2478C0.803019 82.4065 0.362841 82.8826 0.313932 83.608C0.265024 84.8096 1.41438 85.5123 1.46329 85.5577C1.41438 85.603 0.705202 86.2831 0.949745 87.2126C1.14538 88.0061 1.90347 88.3461 2.00128 88.3688C1.95237 88.5048 1.78119 89.0943 2.0991 89.6383C2.58819 90.4545 3.762 90.4091 3.88427 90.4091C4.71572 90.3638 5.49826 89.8424 5.86507 89.0489C6.3297 89.2983 7.55242 89.8877 9.21532 89.729C10.3402 89.6157 11.1717 89.2076 11.6118 88.9582C12.4922 90.3865 13.8616 92.3134 15.8914 94.2857C17.6765 96.0087 21.0023 99.2505 25.9421 100.588C32.1046 102.266 37.5579 100.089 40.6881 98.8425C49.1004 95.4873 53.2821 89.321 54.8227 87.0086C57.4148 83.064 58.3197 79.6861 59.1022 76.6256C60.3738 71.7741 59.9336 69.8698 59.5179 68.759C59.2734 68.0789 57.8306 64.1796 54.5048 63.7262C51.7903 63.3408 49.5405 65.4945 49.2715 65.7665C48.3423 66.6733 47.8532 67.8749 46.875 70.2326C46.3859 71.4341 46.068 72.3409 45.9213 72.749C44.3318 77.5324 43.5248 79.9128 43.3047 80.4115C42.7178 81.7717 41.3239 84.8776 37.9736 87.3033C34.7701 89.6157 31.4199 90.1144 29.9282 90.3184C27.6784 90.6132 24.915 90.9759 21.9805 89.6383C18.7036 88.1421 17.2363 85.4217 16.8451 84.6962C15.6713 82.4519 15.4512 79.9581 15.28 78.1898C15.0599 75.9228 15.2311 74.1545 13.8127 72.749C13.5437 72.4996 12.9079 71.8648 12.2477 71.9782C11.2939 72.1595 10.7559 73.8598 10.2669 75.4694C9.85113 76.8296 9.9734 76.9883 9.63104 77.3057C8.92186 77.9631 8.01705 77.6231 4.91135 77.7818C3.10173 77.8951 2.46592 78.0765 1.87901 78.3712Z" fill="white"/>
<path d="M6.9411 77.3964C4.30003 76.943 -0.346297 77.5777 0.0205182 80.9329C0.338425 83.9481 4.20221 84.4695 6.52538 83.1546C6.91664 82.9279 6.54983 82.3385 6.15856 82.5652C4.22667 83.6534 0.729694 83.3587 0.729694 80.6382C0.729694 78.0085 4.71575 77.7138 6.74546 78.0538C7.2101 78.1445 7.40573 77.4871 6.9411 77.3964V77.3964Z" fill="black"/>
<path d="M0.65631 82.0438C-1.98476 85.0363 4.37337 88.7995 6.25636 85.0363C6.45199 84.6509 5.81618 84.2881 5.62054 84.6962C4.15328 87.598 -0.737588 84.6962 1.19431 82.5199C1.48776 82.2025 0.974217 81.7037 0.65631 82.0438V82.0438Z" fill="black"/>
<path d="M0.803069 85.0816C0.240619 86.2605 0.631888 87.7567 1.92797 88.3688C3.19959 88.9809 4.78913 88.4141 5.4494 87.2806C5.66948 86.8952 5.03367 86.5552 4.81358 86.9406C4.3245 87.734 3.22405 88.1874 2.29478 87.7794C1.36552 87.3713 1.02316 86.2605 1.43888 85.4217C1.63452 85.0363 0.998703 84.6962 0.803069 85.0816V85.0816Z" fill="black"/>
<path d="M1.38996 88.1194C1.29214 89.321 2.05022 90.4091 3.37076 90.6585C4.59348 90.8852 5.71838 90.1371 6.1341 89.1169C6.30528 88.7089 5.5961 88.5275 5.42492 88.9356C5.10702 89.7064 4.22666 90.2051 3.3463 89.9557C2.44149 89.7064 2.07468 88.9356 2.12359 88.1194C2.14804 87.6887 1.41441 87.6887 1.38996 88.1194V88.1194Z" fill="black"/>
<path d="M3.7131 80.7062C4.34892 80.6382 5.00919 80.6609 5.54718 81.001C6.06072 81.3183 6.35417 81.9531 6.06072 82.4745C5.84063 82.8599 6.47645 83.2 6.69654 82.8146C7.0878 82.1118 6.91662 81.2957 6.32972 80.7289C5.66945 80.0715 4.61792 79.9355 3.68865 80.0261C3.24847 80.0941 3.24847 80.7743 3.7131 80.7062V80.7062Z" fill="black"/>
<path d="M5.98737 89.5703C7.259 89.1396 8.48171 90.1144 9.80225 89.9784C10.8049 89.865 11.6852 89.3663 12.5167 88.9129C12.908 88.6862 12.5411 88.0968 12.1499 88.3235C10.9027 89.0262 9.8267 89.525 8.33499 89.1169C7.43018 88.8675 6.721 88.5955 5.79173 88.9129C5.35156 89.0716 5.52274 89.729 5.98737 89.5703V89.5703Z" fill="black"/>
<path d="M6.74544 77.9858C8.01707 78.3939 9.72888 78.4619 10.4381 77.1697C10.8293 76.4442 10.5848 75.5601 10.756 74.7893C10.9516 73.7465 11.5874 72.885 12.4678 72.2276C12.8346 71.9555 12.321 71.4794 11.9542 71.7515C11.0005 72.4769 10.3158 73.4744 10.0712 74.6079C9.94896 75.2427 10.1201 75.9908 9.92451 76.6029C9.48433 77.8271 8.01707 77.6684 6.98999 77.3284C6.5009 77.1923 6.30527 77.8498 6.74544 77.9858V77.9858Z" fill="black"/>
<path d="M11.9298 72.2729C14.0084 72.5223 14.2774 75.7641 14.6197 77.2377C15.0355 79.1647 15.2556 81.1143 15.6468 83.0413C16.2826 86.1244 18.2145 88.5728 21.2958 89.9557C24.5238 91.3839 28.1919 91.3159 31.5666 90.4545C35.0391 89.5477 38.6339 87.9154 40.8837 85.2176C41.1772 84.8776 40.6636 84.4015 40.3702 84.7416C38.0226 87.5527 34.2077 89.2076 30.5395 90.0011C26.8469 90.7945 22.8119 90.4998 19.7307 88.2781C16.4049 85.8977 16.3315 82.3158 15.6713 78.7566C15.3534 77.079 15.0844 75.2654 14.4241 73.6785C14.0084 72.681 13.3481 71.7741 12.1498 71.6155C11.6608 71.5474 11.4651 72.2049 11.9298 72.2729V72.2729Z" fill="black"/>
<path d="M11.3918 89.3663C14.3507 92.7215 17.2119 96.5528 21.1246 99.0238C24.9639 101.427 29.7081 101.676 34.1588 100.996C43.2069 99.5906 50.8855 93.9003 55.2873 86.5552C57.8061 82.3838 59.2978 77.7591 59.9581 73.021C60.007 72.5903 59.2734 72.5903 59.2245 73.021C58.0996 81.1143 54.2847 89.0489 47.4864 94.3991C44.1361 97.0288 40.1501 99.0012 35.8706 99.9533C31.4443 100.951 26.3334 101.087 22.2984 98.8878C17.9944 96.5528 14.9865 92.3814 11.9053 88.8675C11.6118 88.5502 11.0983 89.0262 11.3918 89.3663V89.3663Z" fill="black"/>
<path d="M54.8472 63.6355C52.8175 62.8874 50.6655 63.8622 49.2471 65.2451C47.5842 66.832 46.7528 68.9404 46.1414 71.026C45.4322 73.4518 44.7964 75.8548 43.7938 78.1898C42.7178 80.7062 41.3484 83.0866 39.7833 85.3537C39.5143 85.7164 40.1501 86.0564 40.4191 85.6937C42.9379 82.0891 44.8698 78.1672 46.0681 74.0185C46.7039 71.8422 47.1196 69.5751 48.2934 67.6028C49.4672 65.6078 51.9616 63.2955 54.6515 64.293C55.0917 64.4516 55.2873 63.7942 54.8472 63.6355V63.6355Z" fill="black"/>
<path d="M4.81356 87.7567C5.49828 87.802 5.35156 88.8675 5.22929 89.2529C5.08256 89.661 5.79174 89.8424 5.93846 89.4343C6.25637 88.5728 6.03628 87.1673 4.81356 87.0766C4.34893 87.0539 4.34893 87.734 4.81356 87.7567V87.7567Z" fill="black"/>
<path d="M5.2293 85.671C5.37603 86.2151 5.15594 86.7819 4.69131 87.0993C4.30004 87.3486 4.66685 87.9381 5.05812 87.6887C5.81621 87.1899 6.18302 86.3285 5.93848 85.4897C5.84066 85.0589 5.13149 85.2403 5.2293 85.671V85.671Z" fill="black"/>
<path d="M5.64497 83.3133C6.30524 83.608 5.86506 84.5829 5.54715 84.9683C5.2537 85.3083 5.88951 85.6484 6.18297 85.3083C6.74542 84.6282 7.03887 83.1773 6.01179 82.7239C5.59606 82.5425 5.22925 83.132 5.64497 83.3133V83.3133Z" fill="black"/>
<path opacity="0.11" d="M0.607411 83.404C0.998681 83.2 1.63449 84.4695 3.27294 85.1043C3.88429 85.331 4.64238 85.4897 8.1149 85.1043C9.2398 84.9683 10.7071 84.7869 12.4678 84.4922C12.8101 85.7844 13.5193 87.734 14.9621 89.7517C15.5735 90.5905 18.0434 93.855 22.812 95.782C27.9229 97.8677 32.5448 97.1649 34.33 96.8702C35.8461 96.6208 40.0767 95.8727 43.8427 92.8349C46.3615 90.8172 47.9755 88.3688 50.3476 81.9985C51.9615 77.6684 53.9179 71.6608 55.3607 64.2023C56.3389 65.1318 57.855 66.8094 58.7109 69.3031C59.1267 70.5046 59.5179 72.2729 59.2 75.0387C58.5398 81.001 55.3118 85.9658 53.3554 88.5048C51.3257 91.1573 47.7065 95.7367 41.006 98.5704C40.1012 98.9558 34.9902 101.019 28.4854 100.747C26.9937 100.679 25.6242 100.611 23.9369 100.044C22.1028 99.4319 20.2687 97.845 16.625 94.7165C15.1088 93.4243 13.6171 92.0641 12.101 90.0918C11.8075 89.7064 11.563 89.3663 11.3918 89.1396C10.8782 89.457 10.1202 89.8197 9.26425 89.729C8.1149 89.6383 7.72363 88.8676 6.76991 89.0036C5.93846 89.1169 5.93846 89.7517 4.93583 90.0918C4.15329 90.3411 3.05285 90.3185 2.31922 89.797C1.78122 89.4116 1.70786 88.9809 1.0965 86.5325C0.509594 84.1295 0.338413 83.54 0.607411 83.404Z" fill="#494949"/>
<path d="M28.5587 77.5097C28.0941 77.6004 27.9229 78.4619 27.6295 79.7994C27.4583 80.6155 27.3849 81.3183 27.3605 81.8171C26.3823 82.8826 26.2845 83.8574 26.26 84.2428C26.2356 85.0363 26.529 85.6484 27.0915 86.7819C27.4827 87.598 27.8985 88.2328 28.1919 88.6635C27.1404 88.8902 26.4067 89.525 26.3578 90.2051C26.3089 90.8625 26.9447 91.3839 27.1893 91.5653C28.2897 92.4494 29.0967 91.792 30.4906 92.4948C31.6155 93.0615 31.5177 93.6963 33.1561 94.5351C34.1832 95.0565 34.5011 94.9432 34.6234 94.8752C35.0391 94.6258 34.8924 93.8097 34.819 93.2656C34.7212 92.6081 34.4278 91.6106 33.6208 90.4545C34.5745 90.1371 35.5282 89.8197 36.4575 89.525C35.7728 89.593 35.626 89.6157 35.626 89.6157C35.626 89.593 37.3134 88.9582 38.7562 89.525C39.9545 90.001 40.0523 90.9985 41.0549 91.0666C41.6174 91.1119 42.2532 90.8172 42.5222 90.3864C43.0846 89.5023 42.0331 88.2101 41.7885 87.9154C40.7859 86.6912 39.3186 86.3285 38.6584 86.2151C38.8785 85.7617 39.123 85.0363 39.1719 84.1294C39.2208 82.5879 38.5361 81.4543 38.2182 80.9783C37.778 79.6407 37.3623 78.3032 36.9221 76.943C36.2374 78.4165 35.4793 78.8699 34.8924 78.9833C34.2321 79.1193 33.8653 78.8246 32.7893 78.9833C31.7622 79.142 31.7133 79.4367 31.1264 79.414C29.757 79.278 29.2924 77.3737 28.5587 77.5097Z" fill="#161616"/>
<path d="M29.1701 84.6735C29.5858 85.1269 30.2461 85.4217 30.9063 85.263C31.4933 85.1269 31.8845 84.6735 31.9579 84.1295C31.9823 83.9028 31.6155 83.9028 31.5911 84.1295C31.5422 84.6055 31.102 84.9456 30.5884 84.9683C30.1238 84.9909 29.7325 84.7416 29.4391 84.4242C29.2679 84.2655 29.0234 84.5148 29.1701 84.6735V84.6735Z" fill="white"/>
<path d="M34.4033 83.9254C35.0146 84.7415 36.9954 84.8096 36.9221 83.5173C36.8976 83.2906 36.5308 83.2906 36.5553 83.5173C36.6286 84.4468 35.1369 84.3108 34.7212 83.7441C34.5745 83.5627 34.2566 83.7441 34.4033 83.9254V83.9254Z" fill="white"/>
<path d="M33.4496 86.4418C33.4496 86.4645 33.4741 86.4872 33.4741 86.5098C33.5474 86.5325 33.6452 86.5552 33.7186 86.5778C33.6697 86.4872 33.5963 86.4418 33.4741 86.4418C33.5719 86.4191 33.6452 86.3738 33.743 86.3511C33.7186 86.3285 33.6941 86.2831 33.6697 86.2605C33.5474 86.3058 33.4496 86.3511 33.3273 86.3965C33.4985 86.6458 33.4251 87.0993 33.3273 87.3486C33.2051 87.6887 32.6915 88.1421 32.3736 87.6887C32.2513 87.5073 31.9334 87.666 32.0557 87.87C32.3736 88.3234 33.0339 88.3008 33.4007 87.9154C33.7675 87.53 33.9631 86.6912 33.6452 86.2378C33.5474 86.0791 33.254 86.1698 33.3029 86.3738C33.3518 86.5098 33.4251 86.6005 33.5474 86.6685C33.6452 86.7365 33.792 86.6685 33.8164 86.5778C33.8653 86.3738 33.792 85.8977 33.4496 86.0337C33.1317 86.1471 33.254 86.6005 33.4007 86.7819C33.4496 86.8499 33.5719 86.8952 33.6452 86.8499C33.9142 86.6685 33.9142 86.3285 33.6208 86.1924C33.4251 86.0564 33.254 86.3511 33.4496 86.4418V86.4418Z" fill="white"/>
<path d="M33.4741 86.5098C33.5719 87.0312 33.7675 87.666 34.4278 87.7567C35.088 87.8474 35.2837 87.2579 35.2837 86.7819C35.2837 86.5552 34.9169 86.5552 34.9169 86.7819C34.9169 87.1219 34.7946 87.598 34.3055 87.3713C33.9387 87.2126 33.8898 86.7592 33.8409 86.4191C33.792 86.2151 33.4251 86.3058 33.4741 86.5098V86.5098Z" fill="white"/>
<path d="M26.7247 84.7869C27.1893 82.4292 29.0234 80.4115 31.5177 79.7314C34.012 79.0513 36.8977 79.9808 38.047 82.2025C38.2427 82.5879 38.8785 82.2478 38.6828 81.8624C37.4357 79.482 34.3789 78.4165 31.6644 79.006C28.7788 79.6407 26.5535 81.9304 26.0155 84.6055C25.9421 85.0363 26.6513 85.2176 26.7247 84.7869V84.7869Z" fill="#161616"/>
<path d="M28.0207 81.3637C27.9963 80.2302 28.2164 79.0967 28.7299 78.0765C28.7788 77.9858 28.8277 77.9178 28.8522 77.8271C29.0234 77.5551 29.0478 77.5097 28.9011 77.6911C28.7544 77.8044 28.7788 77.8951 28.9989 78.0311C29.0478 78.0992 29.1212 78.1898 29.1701 78.2579C29.5369 78.8019 29.8548 79.3687 30.1238 79.9581C30.295 80.3662 31.0042 80.1848 30.833 79.7768C30.5884 79.2327 29.4635 76.4669 28.5098 77.079C28.0452 77.3737 27.7517 78.3712 27.605 78.8473C27.336 79.6634 27.2382 80.5249 27.2627 81.3864C27.3116 81.7944 28.0452 81.7944 28.0207 81.3637V81.3637Z" fill="#161616"/>
<path d="M35.4793 79.5274C35.7239 79.142 35.9684 78.7566 36.2374 78.3712C36.3597 78.2125 36.5309 78.0538 36.6042 77.8725C36.7754 77.7818 36.7999 77.6911 36.702 77.5777C36.6042 77.419 36.6287 77.4644 36.751 77.7138C37.1667 78.6886 37.4601 79.6407 37.5824 80.7062C37.6313 81.137 38.3649 81.137 38.316 80.7062C38.2427 79.9581 38.0959 79.2327 37.8759 78.5072C37.7291 78.0992 37.509 77.1697 37.0933 76.9203C36.7754 76.7389 36.5064 76.875 36.2863 77.1243C35.7239 77.7364 35.2837 78.4846 34.8435 79.1873C34.599 79.5501 35.2348 79.8901 35.4793 79.5274V79.5274Z" fill="#161616"/>
<path d="M26.0644 84.4242C25.8932 88.2328 29.6103 91.4973 33.7431 90.7038C35.6505 90.3411 37.4112 89.1849 38.316 87.5753C39.2698 85.8751 39.8078 83.1773 38.5606 81.4997C38.2916 81.137 37.6558 81.477 37.9248 81.8397C39.0252 83.3587 38.4872 85.8524 37.6069 87.3713C36.7999 88.7542 35.2103 89.729 33.5474 90.0464C29.8548 90.7265 26.6513 87.7794 26.798 84.4242C26.798 83.9708 26.0644 83.9708 26.0644 84.4242V84.4242Z" fill="#161616"/>
<path d="M26.5779 90.4091C27.1648 88.3915 30.0994 88.5048 31.64 89.389C33.2784 90.2958 34.1099 92.064 34.2811 93.7643C34.33 94.2404 34.5256 94.7165 33.6697 94.4218C33.3518 94.3084 32.9361 93.8777 32.6915 93.651C32.2513 93.2429 31.8601 92.8122 31.371 92.4721C30.833 92.0867 30.2705 91.86 29.6103 91.7467C28.5832 91.5653 26.7247 91.6787 26.6268 90.3184C26.6024 89.8877 25.8688 89.8877 25.8932 90.3184C25.9666 91.2026 26.5779 91.792 27.4583 92.0867C28.143 92.3134 28.9011 92.2681 29.6103 92.4268C30.4906 92.6308 31.0775 93.0615 31.6889 93.651C32.3003 94.2177 33.3518 95.4873 34.4033 95.3059C35.2837 95.1472 35.088 94.2177 35.0147 93.6056C34.7457 91.4293 33.4985 89.2756 31.1998 88.4368C29.2679 87.734 26.4801 88.1421 25.8932 90.2504C25.7465 90.6585 26.4557 90.8399 26.5779 90.4091V90.4091Z" fill="#161616"/>
<path d="M36.3352 87.462C37.3378 86.2151 39.6121 86.7139 40.6636 87.5527C41.275 88.0287 41.6907 88.6862 41.8863 89.4116C41.9352 89.6383 42.0575 90.1144 41.9842 90.3638C41.7396 91.0212 41.2261 90.8172 40.7859 90.4998C40.1745 90.0691 39.7099 89.457 38.9518 89.1849C38.585 89.0489 38.2182 89.0262 37.8269 89.0489C37.4601 89.0489 37.1177 89.1396 36.7509 89.0942C36.0662 89.0036 35.1125 88.4141 36.2618 87.598C36.6287 87.326 36.1151 86.8499 35.7483 87.1219C35.1858 87.53 34.8924 88.1421 35.1369 88.7995C35.4793 89.661 36.3597 89.8424 37.2645 89.797C38.1693 89.7517 38.7562 89.7744 39.4898 90.3411C39.8322 90.6132 40.1256 90.9305 40.5169 91.1799C41.0304 91.52 41.7885 91.8373 42.351 91.3613C43.6471 90.2504 42.1553 87.7794 41.1283 87.0086C39.661 85.8977 36.971 85.5803 35.7483 87.1446C35.4304 87.462 36.0662 87.802 36.3352 87.462V87.462Z" fill="#161616"/>
<path d="M27.9963 88.5275C29.5858 88.0514 32.0068 88.9809 32.985 90.1824C33.0583 90.2731 33.2051 90.1824 33.1317 90.0917C32.1046 88.7995 29.6592 87.8474 27.9474 88.3688C27.8251 88.3915 27.874 88.5501 27.9963 88.5275V88.5275Z" fill="white"/>
<path d="M36.5064 87.5527C37.2156 86.7819 38.2427 86.4418 39.3187 86.6459C39.4409 86.6685 39.4898 86.5098 39.3676 86.4872C38.2427 86.2831 37.1178 86.6232 36.3841 87.4393C36.3108 87.53 36.433 87.6433 36.5064 87.5527V87.5527Z" fill="white"/>
<path d="M28.9011 77.8951C29.1456 78.4845 29.3168 79.074 29.3901 79.6861C29.4391 79.6634 29.488 79.6407 29.5369 79.6181C29.4146 79.5047 29.2923 79.4367 29.1456 79.3687C29.0722 79.346 28.9989 79.3687 28.9989 79.4367C28.9989 79.6407 28.9744 79.8221 28.9744 80.0261C29.0233 80.0035 29.0722 79.9808 29.1211 79.9581C28.7788 79.5954 28.5098 80.4115 28.412 80.5702C28.3631 80.6609 28.5098 80.7516 28.5587 80.6609C28.5832 80.6156 28.9011 79.9808 28.9744 80.0715C29.0233 80.1395 29.1211 80.0715 29.1211 80.0035C29.1211 79.7994 29.1456 79.6181 29.1456 79.414C29.0967 79.4367 29.0478 79.4594 28.9989 79.482C29.1456 79.5274 29.2434 79.5954 29.3412 79.7087C29.3901 79.7541 29.5124 79.7314 29.488 79.6407C29.3901 79.006 29.2434 78.3939 28.9744 77.8044C29.0233 77.7591 28.8522 77.8044 28.9011 77.8951V77.8951Z" fill="white"/>
<path d="M36.4575 77.6004C36.1885 78.0765 36.0417 78.5526 35.9928 79.0966C35.9928 79.142 36.0662 79.1873 36.1151 79.1873C36.4575 79.0966 36.5064 79.346 36.5308 79.6181C36.5308 79.6861 36.6286 79.7314 36.6776 79.6861C36.7998 79.8674 36.8976 80.0261 37.0199 80.2075C36.9955 80.3208 37.1911 80.3662 37.1911 80.2528C37.24 79.9354 37.0199 79.1193 36.5553 79.5727C36.6042 79.5954 36.6531 79.6181 36.702 79.6407C36.6776 79.4367 36.6286 79.2553 36.5797 79.0513C36.5797 79.006 36.5308 78.9833 36.4819 78.9833C36.3107 78.9833 36.1885 79.006 36.0417 79.0513C36.0906 79.074 36.1151 79.0966 36.164 79.142C36.1885 78.6432 36.3352 78.1898 36.6042 77.7364C36.6776 77.5777 36.5064 77.4871 36.4575 77.6004V77.6004Z" fill="white"/>
<path d="M51.7903 64.1569C52.1327 66.3333 52.793 69.7792 54.1624 73.8598C57.048 82.3838 60.4472 86.0338 64.9468 95.918C66.0717 98.3891 67.6612 102.107 69.2263 106.8C72.1364 107.684 77.5408 108.885 84.1435 107.82C95.0012 106.074 101.384 99.4092 103.169 97.3916C99.4519 91.0439 95.7104 84.1748 92.0667 76.8069C88.4474 69.5071 85.2928 62.4793 82.5539 55.7916C80.2552 54.9981 74.2394 53.2298 66.8542 54.9074C58.0262 56.8798 53.1598 62.4793 51.7903 64.1569Z" fill="#788BFF"/>
<path opacity="0.13" d="M73.2613 54.1367C74.1906 55.9503 75.3644 58.4213 76.6115 61.4138C80.5242 70.9353 81.9426 78.7566 82.4561 81.545C83.5566 87.3033 84.5103 96.2354 82.9452 107.707C86.3444 107.616 88.8632 106.89 90.4527 106.324C95.0012 104.646 98.3025 101.722 101.482 98.8878C102.215 98.253 102.778 97.6863 103.145 97.3462C102.093 95.6686 100.503 93.0389 98.6449 89.7517C93.2649 80.2755 89.7435 72.4089 86.7845 65.7438C85.733 63.4088 84.2902 60.0536 82.6029 55.9956C81.2579 55.4742 79.5705 54.9528 77.5897 54.6127C75.9757 54.318 74.5085 54.182 73.2613 54.1367Z" fill="#494949"/>
<path opacity="0.1" d="M89.4501 72.1142C89.8658 76.1722 90.2082 79.5727 90.4527 82.0211C91.382 91.6106 91.5531 94.2631 91.6265 95.9633C91.8221 99.976 91.8221 103.263 91.7977 105.417C93.3139 104.918 95.2702 104.102 97.2999 102.787C99.8432 101.132 101.555 99.3185 102.655 97.981C98.2536 89.3436 93.8519 80.7289 89.4501 72.1142Z" fill="#494949"/>
<path d="M72.0875 50.1467C70.9136 50.4641 70.2778 52.0283 69.8866 53.6379C69.104 56.9251 69.5198 59.7362 69.6665 60.711C70.3757 65.0411 71.6473 68.2829 72.063 69.3484C73.139 71.9782 74.6063 75.4921 77.8098 79.2327C79.6439 81.3637 81.2089 83.2 84.0945 84.5602C85.7819 85.3763 89.2789 87.0312 92.8737 85.7164C93.0448 85.6483 96.5663 84.3108 97.4711 81.4543C97.6667 80.8196 97.7156 80.1848 97.789 78.9379C97.8379 78.1898 97.8623 76.8749 97.6912 75.2427C97.4466 73.089 96.9331 71.4114 96.5418 70.2099C94.8055 64.8824 93.9496 62.2299 92.14 59.9176C90.6483 58.0133 88.961 55.8369 86.1732 55.5422C85.9286 55.5195 83.1164 55.2702 81.4535 57.0838C80.3041 58.3533 80.3775 59.9176 80.4019 60.9604C80.4753 62.9554 81.3067 64.3836 82.6028 66.5826C83.8989 68.759 84.4125 69.031 85.9531 71.6154C88.0562 75.152 87.8361 75.4921 87.7382 75.5827C87.3225 75.9228 85.6596 74.8573 85.2928 74.6079C84.9504 74.3812 84.4614 74.0638 83.85 73.4517C81.9426 71.4794 80.8177 68.5096 80.8177 68.5096C79.815 66.6733 78.4945 64.0662 77.1495 60.7564C77.5652 59.2828 78.201 58.24 78.7146 57.5599C79.546 56.4717 80.4753 55.7236 80.6954 54.3633C80.7932 53.8419 80.7443 53.3885 80.6954 53.0938C81.1111 52.7311 81.2334 52.187 81.0133 51.7336C80.7443 51.2122 80.084 50.9628 79.4482 51.1442C79.4482 51.0762 79.3749 50.4867 78.8124 50.1693C78.3478 49.8973 77.712 49.9426 77.2473 50.26C76.5137 49.7386 75.9023 49.6026 75.4622 49.5799C74.9486 49.5572 74.7041 49.6706 73.4814 49.8746C72.4543 50.124 72.3809 50.0787 72.0875 50.1467Z" fill="white"/>
<path d="M78.2255 59.7135C78.8858 58.1946 79.7172 56.8117 80.622 55.4062C81.0867 54.6807 81.6247 53.7739 80.9889 52.9805C79.546 51.2575 77.5897 53.4565 76.9783 54.59C76.7583 54.9754 77.3941 55.3155 77.6142 54.9301C77.981 54.25 78.3967 53.4112 79.2526 53.1845C79.4971 53.0711 79.7417 53.0711 80.0107 53.1391C80.084 53.6606 80.1574 54.182 80.2552 54.7034C80.1819 54.9981 79.7417 55.4742 79.5705 55.7462C78.788 56.9478 78.1521 58.2173 77.5652 59.5095C77.3452 59.9402 78.0543 60.0989 78.2255 59.7135V59.7135Z" fill="black"/>
<path d="M70.2289 62.638C69.8621 60.2123 69.8132 57.7412 70.1066 55.3155C70.3756 53.0938 70.8892 49.7159 74.215 50.3507C74.6796 50.4414 74.8752 49.7839 74.4106 49.6933C71.794 49.1945 70.1556 50.9175 69.7154 53.1165C69.0551 56.313 69.0307 59.5775 69.5197 62.8194C69.5931 63.2501 70.3023 63.0687 70.2289 62.638V62.638Z" fill="black"/>
<path d="M73.2857 52.187C73.5547 51.5976 73.8482 50.9855 74.3617 50.5321C75.2421 49.7386 76.367 50.1693 77.3207 50.6001C77.7364 50.8041 78.1032 50.2147 77.6875 50.0106C76.6849 49.5346 75.56 49.0812 74.484 49.6026C73.5547 50.056 73.0656 50.9855 72.6744 51.8243C72.4787 52.255 73.1145 52.5951 73.2857 52.187V52.187Z" fill="black"/>
<path d="M75.4622 52.391C76.367 51.3029 77.5652 50.1693 79.1303 51.0308C79.546 51.2575 79.9128 50.6681 79.4971 50.4414C77.6386 49.4212 76.0735 50.5321 74.9486 51.8923C74.6552 52.255 75.1687 52.7311 75.4622 52.391V52.391Z" fill="black"/>
<path d="M77.1006 52.8898C77.5652 52.4364 78.0543 51.9603 78.6901 51.7336C79.4482 51.4389 80.8421 51.6202 80.5487 52.6857C80.4509 53.1165 81.1356 53.2978 81.2578 52.8671C81.5024 51.9376 80.8421 51.0762 79.8395 50.9175C78.4945 50.6908 77.443 51.5976 76.5871 52.4137C76.2692 52.7311 76.7827 53.2072 77.1006 52.8898V52.8898Z" fill="black"/>
<path d="M77.3941 59.3735C76.5382 61.0738 77.5897 62.7967 78.3233 64.3609C79.3504 66.56 80.4264 68.759 81.7469 70.7993C83.4588 73.4744 87.1758 78.2805 91.0641 75.5374C91.4309 75.2654 91.0641 74.6759 90.6972 74.948C86.9557 77.6004 83.4832 72.2502 81.967 69.7791C81.0867 68.3282 80.3041 66.832 79.5705 65.3131C78.8369 63.7942 77.1984 61.4138 78.0543 59.7135C78.2255 59.3281 77.5897 58.9654 77.3941 59.3735V59.3735Z" fill="black"/>
<path d="M80.5487 57.6505C78.3967 64.429 84.9993 69.6885 87.4203 75.4921C87.5915 75.9001 88.3007 75.7188 88.1295 75.3107C85.7819 69.6885 79.1792 64.3836 81.2578 57.8319C81.3801 57.4012 80.6709 57.2198 80.5487 57.6505V57.6505Z" fill="black"/>
<path d="M69.4953 62.4566C70.7425 68.8043 73.6526 74.8119 77.9321 79.9128C80.0107 82.3611 82.3828 84.7415 85.6597 85.739C88.4475 86.5778 92.2868 87.0086 94.879 85.4443C97.7157 83.7667 98.0825 80.3435 98.2047 77.5097C98.2292 77.079 97.4956 77.079 97.4711 77.5097C97.3244 81.1596 96.444 85.1949 91.7733 85.7163C87.4693 86.1924 83.4588 84.6055 80.5487 81.7264C75.1443 76.3989 71.5984 69.4391 70.1801 62.2753C70.1312 61.8445 69.422 62.0259 69.4953 62.4566V62.4566Z" fill="black"/>
<path d="M81.0378 58.5573C81.8203 55.6556 85.5863 55.4515 87.9339 56.7211C90.3304 58.0133 91.9688 60.3483 93.1671 62.5927C94.4143 64.9504 95.3191 67.4894 96.1994 69.9832C97.2021 72.8396 97.9602 75.8321 97.4466 78.8473C97.3733 79.278 98.0824 79.4594 98.1558 79.0286C98.7427 75.5827 97.8134 72.2502 96.6152 68.9857C95.5147 66.0159 94.4387 62.9554 92.6047 60.2803C91.064 58.0133 88.7653 55.6556 85.733 55.2702C83.3854 54.9754 80.891 56.1543 80.3041 58.376C80.2063 58.8067 80.9155 58.9881 81.0378 58.5573V58.5573Z" fill="black"/>
<path opacity="0.1" d="M72.9923 49.852C74.9487 49.1265 76.8561 49.92 77.3207 50.124C75.9513 51.8016 73.0412 55.8596 72.7967 61.5952C72.4299 69.7565 77.6875 75.1747 79.5461 77.1016C81.9426 79.5727 85.0728 82.7919 89.1077 82.3385C91.382 82.0891 93.534 80.6835 94.6344 78.8926C95.7348 77.1016 95.6615 75.152 94.341 70.1192C92.3112 62.502 90.0859 58.0359 90.4038 57.8999C90.7217 57.7639 93.3628 61.5952 95.3436 66.4013C95.5392 66.9 97.1777 70.9353 97.7646 76.4895C98.1314 79.9128 97.8135 81.3183 97.0554 82.5652C95.8816 84.4922 93.9741 85.3536 93.2405 85.6483C90.2815 86.8045 87.4448 85.9884 86.0998 85.5577C81.2823 84.0614 78.7146 80.4342 76.1225 76.7843C72.1364 71.1394 71.036 66.3106 69.9844 61.6632C69.2508 58.444 68.7617 54.7034 70.5958 51.9603C70.9137 51.3935 71.6229 50.3734 72.9923 49.852Z" fill="#494949"/>
<path d="M37.6802 38.8115C37.6068 39.877 38.0226 41.0786 38.9029 43.4816C39.8811 46.1794 40.9326 49.0585 43.5737 51.8923C45.261 53.7059 47.3152 55.9276 50.8122 56.5624C53.5755 57.0611 55.8987 56.3357 57.0725 55.8823C57.3415 56.5624 57.7083 57.2878 58.1729 58.0359C59.3957 60.0309 60.9118 61.4365 62.1101 62.366C63.0149 62.2753 64.7756 61.9352 66.2918 60.6657C67.4656 59.6682 68.028 58.4893 68.3704 57.7186C68.7861 56.8117 69.0062 56.0183 69.104 55.4515C68.3704 55.0435 67.5634 54.4994 66.7809 53.7513C64.3354 51.4389 63.6752 48.6958 63.4795 47.3809C63.7974 44.7738 64.1398 42.1441 64.4577 39.537C64.8245 39.5823 65.6071 39.6277 66.2918 39.1969C67.0499 38.7209 67.1966 37.9274 67.3922 37.0433C67.5879 36.1591 67.808 35.0256 67.27 33.7334C67.0254 33.1666 66.2429 31.353 64.58 31.2397C63.4551 31.149 62.3057 31.8518 61.6455 32.9399C60.2271 31.6704 57.1948 29.426 52.9397 29.0633C45.579 28.4285 38.0959 33.7561 37.6802 38.8115Z" fill="white"/>
<path d="M48.5379 49.1719C48.3423 49.6479 48.9048 50.328 49.3205 50.6681C50.4698 51.5976 52.4995 51.5522 53.9668 50.9175C56.021 50.0333 56.6812 48.129 56.9747 47.2676C57.3171 46.3154 57.7572 45.0685 57.0481 43.9577C56.4367 42.9829 55.3607 42.6428 54.945 42.5295C54.5293 43.3229 54.2113 43.9124 53.9668 44.2977C53.6734 44.7738 53.5755 44.9325 53.4044 45.2952C53.1598 45.7713 53.1354 45.9527 52.793 46.3834C51.3991 48.061 49.4917 48.6731 49.4917 48.6731C49.0515 48.7638 48.6602 48.8545 48.5379 49.1719Z" fill="black"/>
<path d="M38.0715 41.532C40.0033 47.1315 42.4243 53.6606 48.6602 56.2903C51.2034 57.3558 54.2358 57.5599 56.8279 56.517C59.738 55.3608 61.4498 52.6858 62.6236 50.1013C64.1642 46.7235 64.8245 43.0509 64.58 39.401C64.5555 38.9702 63.8219 38.9702 63.8463 39.401C64.0909 43.2096 63.3573 47.0409 61.621 50.5094C59.9336 53.8873 57.2681 56.585 52.9886 56.5397C44.3807 56.449 40.8837 47.6529 38.7317 41.3733C38.6339 40.9199 37.9492 41.1012 38.0715 41.532V41.532Z" fill="black"/>
<path d="M61.9144 33.5747C61.9389 32.2145 63.4551 31.3983 64.8001 31.7837C66.0472 32.1691 66.8298 33.3027 67.0988 34.4362C67.3433 35.5243 67.2455 36.7939 66.8787 37.8367C66.5852 38.6982 66.2184 39.1516 65.0935 39.1516C64.7022 39.1516 64.311 39.0156 63.8952 39.0156C63.4306 39.0156 63.4306 39.6957 63.8952 39.6957C64.7267 39.6957 65.5337 40.0584 66.3407 39.673C66.9276 39.401 67.2699 38.8569 67.5145 38.2901C68.1503 36.7485 68.2237 34.6629 67.4167 33.144C66.7564 31.8971 65.3381 30.8316 63.773 30.9903C62.3302 31.1263 61.2053 32.2145 61.1808 33.552C61.1808 34.0054 61.9144 34.0054 61.9144 33.5747V33.5747Z" fill="black"/>
<path d="M63.3573 45.998C63.2839 49.7386 65.0691 53.3205 68.2481 55.6556C68.615 55.9276 69.1285 55.4515 68.7617 55.1795C65.7294 52.9578 64.0175 49.6026 64.0909 45.998C64.0909 45.5673 63.3573 45.5673 63.3573 45.998V45.998Z" fill="black"/>
<path d="M57.048 56.1543C57.9773 58.5347 59.4935 60.6203 61.5232 62.2979C61.8655 62.5927 62.4035 62.1166 62.0367 61.8219C60.0804 60.2123 58.6376 58.24 57.7327 55.9729C57.586 55.5649 56.8768 55.7462 57.048 56.1543V56.1543Z" fill="black"/>
<path d="M61.6943 62.5247C63.7974 63.2274 65.9005 61.5725 67.1966 60.1896C68.566 58.7387 69.7643 56.8571 69.1774 54.8848C69.0551 54.454 68.3459 54.6354 68.4682 55.0661C68.9573 56.7891 67.8568 58.4667 66.6586 59.7135C65.5337 60.8924 63.6996 62.4793 61.8655 61.8672C61.4498 61.7085 61.2542 62.366 61.6943 62.5247V62.5247Z" fill="black"/>
<path d="M40.8104 39.1516C40.4925 38.3128 41.2261 37.406 41.7641 36.8165C42.5711 35.8871 43.8182 35.6377 44.7475 36.5898C45.8235 37.678 46.117 39.6277 46.2637 41.0332C46.3615 42.008 45.9947 43.2549 46.606 44.1164C47.2663 45.0459 48.489 45.5899 49.6384 45.794C50.103 45.8847 50.2986 45.2272 49.834 45.1365C49.2227 45.0232 48.6847 44.8418 48.1467 44.5244C47.2663 43.9804 47.0707 43.3909 47.0462 42.4161C47.0218 41.5773 46.9973 40.7612 46.8506 39.9224C46.606 38.5395 46.1903 36.7712 44.9676 35.8417C43.9405 35.0483 42.6689 35.0709 41.6663 35.8644C40.7125 36.6352 39.6121 38.1088 40.0767 39.3103C40.2724 39.741 40.9815 39.5597 40.8104 39.1516V39.1516Z" fill="black"/>
<path d="M47.5842 34.2548C47.7554 31.5117 51.448 30.5142 53.1598 32.7586C53.4288 33.1213 54.0646 32.7812 53.7956 32.4185C51.6681 29.6074 47.0707 30.8089 46.8506 34.2548C46.8261 34.6855 47.5597 34.6855 47.5842 34.2548V34.2548Z" fill="black"/>
<path d="M44.2584 40.9652C43.9161 40.5345 43.7204 40.0584 43.696 39.537C43.5003 39.6277 43.3292 39.741 43.1335 39.8317C43.696 40.1717 43.9894 40.7158 43.965 41.3279C44.1117 41.2146 44.2829 41.1012 44.4296 41.0105C43.8182 40.8065 43.427 40.1717 43.5492 39.5823C43.3781 39.6503 43.1824 39.7183 43.0112 39.7863C43.3047 39.945 43.5492 40.1717 43.7204 40.4665C43.7938 40.6025 43.8427 40.7385 43.8671 40.8972C43.8671 41.0105 43.8671 40.8745 43.8427 40.8292C43.7938 40.7385 43.7449 40.6705 43.696 40.5798C43.5003 40.1717 42.8645 40.5345 43.0602 40.9199C43.2069 41.2372 43.4514 41.5773 43.8916 41.6C44.2584 41.6226 44.5763 41.3959 44.6252 41.0559C44.6986 40.3078 44.0628 39.5596 43.4025 39.2196C43.2069 39.1062 42.9134 39.1969 42.8645 39.4236C42.6689 40.3984 43.2558 41.3506 44.2584 41.6907C44.503 41.7587 44.723 41.5773 44.723 41.3733C44.7475 40.5118 44.3073 39.741 43.5248 39.2876C43.3047 39.1516 42.9623 39.3329 42.9623 39.5823C42.9868 40.2171 43.2069 40.8292 43.6226 41.3506C43.9161 41.668 44.5519 41.3279 44.2584 40.9652V40.9652Z" fill="black"/>
<path d="M51.1056 36.5898C50.9833 36.4538 50.8855 36.2951 50.8366 36.1138C50.8366 36.0684 50.7877 35.7964 50.8366 35.7737C50.8855 35.751 51.0078 36.1138 51.0323 36.1364C51.0812 36.3178 51.0567 36.5218 50.9589 36.6805C51.1301 36.6352 51.3013 36.5898 51.4724 36.5672C50.8611 36.2498 50.5676 35.6604 50.6654 35.0256C50.4698 35.1163 50.2986 35.2296 50.103 35.3203C50.7877 35.5923 51.179 36.2498 51.0078 36.9299C51.1545 36.8619 51.3013 36.7712 51.448 36.7032C51.0812 36.5898 50.7877 36.2951 50.7144 35.9324C50.7144 35.9097 50.7144 35.7057 50.6899 35.7057C50.641 35.7284 50.5921 35.751 50.5187 35.7737C50.5432 35.819 50.5921 35.8871 50.6165 35.9324C50.7144 36.1818 50.7144 36.4311 50.6899 36.7032C50.91 36.6125 51.1056 36.5445 51.3257 36.4538C51.1056 36.2951 50.9344 36.1138 50.8122 35.8644C50.5921 35.479 49.9563 35.819 50.1764 36.2044C50.3231 36.4765 50.5432 36.7259 50.8122 36.9299C51.0812 37.1339 51.3991 36.9979 51.448 36.6805C51.4969 36.2271 51.448 35.615 51.0812 35.275C50.7877 35.0029 50.2497 34.9802 50.0541 35.3883C49.6628 36.1818 50.4943 37.1113 51.2523 37.3606C51.448 37.4286 51.6681 37.2926 51.6925 37.1339C51.9615 36.1818 51.448 35.1389 50.4454 34.7535C50.1764 34.6402 49.9318 34.7762 49.8829 35.0483C49.7606 35.9097 50.2497 36.7485 51.0567 37.1793C51.2034 37.2699 51.4724 37.2246 51.5703 37.0659C51.7659 36.6352 51.8148 36.2044 51.6436 35.7737C51.4969 35.4337 51.179 35.0709 50.7633 35.1163C49.6873 35.2296 50.1519 36.6578 50.5921 37.1113C50.91 37.406 51.4235 36.9072 51.1056 36.5898V36.5898Z" fill="black"/>
<path d="M57.4882 56.0863C57.4882 56.109 57.4882 56.109 57.4638 56.1316C57.6105 56.0636 57.7572 55.9729 57.9039 55.9049C57.8795 55.9049 57.855 55.8823 57.8306 55.8823C57.9039 56.041 57.9773 56.2223 58.0507 56.381C58.0996 56.2903 58.7598 55.9956 58.9555 55.8369C59.3957 55.4969 59.7625 55.0435 60.1048 54.6127C60.8629 53.6832 61.4254 52.6631 61.89 51.5976C61.6455 51.5296 61.4254 51.4842 61.1808 51.4162C60.4472 53.3659 59.9337 56.0863 57.8795 57.2425C58.0507 57.4012 58.2218 57.5599 58.393 57.7186C58.8821 57.0384 59.3712 56.3357 59.8603 55.6556C60.0804 55.3382 59.5668 54.9528 59.2734 55.2475C58.8821 55.6329 58.4664 56.041 58.0751 56.4263C58.2463 56.585 58.4175 56.7437 58.5887 56.9024C58.9555 56.4944 59.2978 56.0636 59.6157 55.6329C59.8603 55.3155 59.3223 54.9301 59.0288 55.2248C58.6865 55.5649 58.3441 55.8142 57.9039 56.0183C58.0996 56.109 58.2708 56.2223 58.4664 56.313C58.4664 56.245 58.4419 56.177 58.4419 56.109C58.393 55.6782 57.6594 55.6782 57.7083 56.109C57.7083 56.177 57.7328 56.245 57.7328 56.313C57.7572 56.5624 58.0262 56.7437 58.2952 56.6077C58.7843 56.3583 59.1756 56.0863 59.5668 55.7009C59.3712 55.5649 59.1756 55.4289 58.9799 55.2928C58.6865 55.6782 58.393 56.0636 58.0751 56.4263C57.7817 56.7664 58.2708 57.2425 58.5887 56.9024C58.9799 56.517 59.3957 56.109 59.7869 55.7236C59.5913 55.5875 59.3957 55.4515 59.2 55.3155C58.7109 55.9956 58.2218 56.6984 57.7328 57.3785C57.5371 57.6732 57.9284 58.0133 58.2463 57.8546C60.4961 56.585 61.083 53.7739 61.89 51.6202C62.0367 51.1895 61.352 51.0535 61.1808 51.4389C60.6673 52.5951 60.007 53.7286 59.1267 54.6807C58.7109 55.1341 58.0507 55.3835 57.6594 55.7916C57.5616 55.8823 57.4638 55.9049 57.4149 56.0183C57.2926 56.2223 57.3904 56.4263 57.6349 56.517C57.6594 56.517 57.6839 56.5397 57.7083 56.5397C57.9039 56.6077 58.0996 56.4717 58.1485 56.313C58.1485 56.2903 58.1485 56.2903 58.1729 56.2677C58.3686 55.8596 57.6594 55.6782 57.4882 56.0863V56.0863Z" fill="black"/>
<path d="M60.2027 55.4062C60.4228 55.1795 60.5695 54.9528 60.6428 54.6807C60.7651 54.2727 60.2027 54.1367 59.9826 54.4087C59.469 55.0435 58.9555 55.6782 58.4419 56.313C58.1485 56.6531 58.7843 56.9931 59.0778 56.6531C59.5913 56.0183 60.1048 55.3835 60.6184 54.7488C60.3983 54.6581 60.1782 54.5674 59.9581 54.4767C59.9092 54.6354 59.8358 54.7714 59.7136 54.9074C59.3712 55.2702 59.9092 55.7462 60.2027 55.4062V55.4062Z" fill="black"/>
<path d="M48.9048 49.784C48.22 48.5144 48.9537 48.0383 50.3231 47.6983C50.4943 47.653 50.6655 47.6303 50.8122 47.5623C51.3991 47.3129 51.7415 46.7688 51.986 46.2474C52.3773 45.4766 52.5974 44.6378 53.1109 43.935C54.1869 42.4161 56.0943 42.4841 56.7057 44.2977C57.3171 46.1114 56.559 48.129 55.2629 49.5119C54.6271 50.192 53.8445 50.8268 52.9153 51.1215C52.1083 51.3935 51.3991 51.3029 50.6166 50.9855C50.0541 50.7588 49.027 50.3054 48.8803 49.7159C48.7825 49.2852 48.0733 49.4666 48.1711 49.8973C48.4401 51.0762 50.3476 51.8016 51.4969 51.9603C52.7441 52.1417 53.9179 51.5749 54.8716 50.8495C56.9991 49.2172 58.3197 46.3381 57.2926 43.8443C56.1922 41.1466 53.2087 42.1441 52.1083 44.2751C51.7659 44.9325 51.5947 46.0434 51.0323 46.5194C50.3231 47.1315 49.4183 46.9048 48.6847 47.3809C47.6576 48.061 47.7554 49.2625 48.2689 50.192C48.489 50.5321 49.1248 50.192 48.9048 49.784V49.784Z" fill="black"/>
<path d="M48.4157 49.0812C52.2061 48.9905 54.0402 45.726 54.8716 42.7335C54.9939 42.3028 54.2847 42.1214 54.1624 42.5521C53.4288 45.2272 51.8393 48.3104 48.4157 48.4011C47.951 48.4237 47.951 49.1038 48.4157 49.0812V49.0812Z" fill="black"/>
<path d="M38.3649 41.1692C37.9247 41.3959 35.2592 38.6982 34.1343 35.0936C33.3029 32.4639 33.5474 30.1288 33.8409 28.6552C34.2566 27.4764 34.8435 26.2069 35.6505 24.9146C39.123 19.3831 44.6008 16.776 47.4375 15.6652C46.8506 16.1866 46.1659 16.8667 45.53 17.7282C44.6497 18.8617 44.0872 19.9272 43.7204 20.8113C44.5519 20.1539 45.5056 19.4964 46.5327 18.8617C48.8314 17.4335 51.0567 16.4133 52.9886 15.6878C52.6952 16.844 52.3773 18.0002 52.0838 19.1337C52.7685 18.771 53.7223 18.2496 54.8961 17.7282C56.1921 17.1614 58.8577 15.9826 59.2734 16.504C59.3957 16.6627 59.2489 16.844 59.0288 17.5015C58.7354 18.3629 58.6376 19.0884 58.5887 19.5645C59.3468 19.4511 60.2027 19.3604 61.1319 19.3378C62.159 19.2924 63.0883 19.3378 63.9197 19.4058C63.6263 20.4486 63.3328 21.4688 63.0394 22.5116C63.6263 22.7156 64.4577 23.101 65.3136 23.7358C67.6123 25.4814 68.2726 27.8391 68.4438 28.7686C68.8106 30.9903 68.2237 32.8493 67.7835 33.8694C66.6097 31.557 64.2865 30.6502 62.966 31.217C62.159 31.557 61.2297 32.6452 61.3276 33.7561C61.352 34.0054 61.4254 34.2321 61.4987 34.3908C60.6428 33.6654 59.3467 32.6906 57.6594 31.7837C55.972 30.8769 54.0891 29.8568 51.5947 29.5621C46.8995 28.9953 43.2313 31.3757 42.2532 32.0331C40.737 33.0306 38.2671 34.6402 37.8269 37.2019C37.3867 39.3556 38.7073 41.0106 38.3649 41.1692Z" fill="#40487C"/>
<path opacity="0.11" d="M56.9747 31.217C57.7328 32.8039 58.7599 35.275 59.3223 38.3808C59.9092 41.464 60.6429 45.4313 58.8577 49.8293C58.2463 51.3255 56.8035 54.2047 53.3799 56.9024C54.1869 56.8798 55.5808 56.7437 57.0481 56.0183C59.4446 54.8621 60.4961 52.9351 60.814 52.255C61.9634 53.2978 63.504 54.9301 64.6778 57.2425C65.3381 58.5347 65.7538 59.7362 65.9984 60.7337C66.6586 60.1896 67.8813 59.0108 68.4438 57.1518C68.6639 56.4263 68.7373 55.7689 68.7373 55.2248C67.3189 54.4994 66.4141 53.6152 65.9005 53.0485C65.6805 52.7991 63.504 50.26 63.6263 46.7461C63.6752 45.4766 63.9687 45.4539 64.1887 43.5043C64.3844 41.7587 64.2866 40.2851 64.1887 39.3103C65.4359 39.7864 66.0717 39.5596 66.3652 39.401C66.9276 39.0836 67.0744 38.5168 67.5879 35.6377C67.8569 34.0961 68.0036 33.3253 68.0525 32.9173C68.346 30.7182 68.4927 29.6074 68.346 28.7232C67.9303 26.2068 66.194 24.5292 65.6071 24.0078C64.6289 23.1237 63.6263 22.6249 62.966 22.3529C63.2595 21.4007 63.5285 20.4259 63.8219 19.4738C62.428 20.9927 61.1319 22.0355 60.2516 22.7156C58.0507 24.3479 56.7791 24.7333 55.2629 26.2975C54.0646 27.5217 53.3799 28.7686 52.9886 29.6074C54.3336 30.1741 55.6542 30.6956 56.9747 31.217Z" fill="#494949"/>
<path opacity="0.17" d="M46.8995 15.9145C46.068 16.2546 44.1117 17.2067 42.7422 19.2244C42.3999 19.7232 41.6418 20.97 41.4217 22.7156C41.1771 24.6426 41.6907 26.1615 41.9841 26.9096C42.082 25.028 42.571 21.9902 44.5274 18.8617C45.2855 17.6828 46.1169 16.708 46.8995 15.9145Z" fill="#494949"/>
<path opacity="0.08" d="M64.1887 39.4236C64.1153 39.401 63.9686 39.6503 63.4306 41.3733C62.697 43.7083 62.3057 45.4313 62.0856 46.2927C61.7677 47.5396 61.2297 49.3079 60.2271 51.4389C61.9633 51.7563 63.6996 52.0736 65.4359 52.3684C64.8 51.0762 64.042 49.2172 63.7485 46.9048C63.2839 42.9375 64.4332 39.469 64.1887 39.4236Z" fill="#494949"/>
</svg>
