<svg width="189" height="174" viewBox="0 0 189 174" fill="none" xmlns="http://www.w3.org/2000/svg">
<path d="M78.1286 148.799C80.1697 150.568 82.2534 152.337 84.3796 154.106C86.4207 155.81 88.4618 157.492 90.4817 159.11C91.396 161.958 90.992 163.662 90.4179 164.676C89.4186 166.466 87.8027 166.488 85.145 169.077C83.7842 170.393 82.2108 171.946 82.5085 172.852C82.87 173.952 86.0592 174.47 97.3918 172.528C99.7306 167.61 102.069 162.691 104.408 157.773C99.2841 152.38 94.1387 146.965 89.0146 141.572C85.3789 143.988 81.7643 146.404 78.1286 148.799Z" fill="#191919"/>
<path d="M55.1233 97.7805C52.8058 103.454 55.2083 109.753 58.9929 119.612C60.5663 123.71 62.2035 126.795 63.054 128.37C64.7336 131.498 65.7117 132.857 72.5793 142.672C78.0436 150.481 78.5751 151.28 80.1697 151.797C85.6553 153.588 94.5427 149.014 94.6278 143.039C94.6916 138.854 90.3967 135.834 89.695 135.338C87.0798 131.606 85.4427 128.197 84.4008 125.673C82.5936 121.251 80.6588 116.548 81.0415 110.638C81.3817 105.547 83.0614 105.244 82.9763 100.801C82.955 100.11 82.6999 91.805 77.6821 88.4613C71.1335 84.1253 58.4827 89.5831 55.1233 97.7805Z" fill="white" stroke="#191919" stroke-width="2"/>
<path opacity="0.47" d="M82.6999 98.7513C83.0401 99.7004 82.7637 101.491 82.2109 105.05C81.5943 109.02 81.1478 109.257 80.9351 111.349C80.5737 114.844 81.4454 117.454 83.1039 122.438C83.5504 123.753 84.4859 125.846 86.3569 130.031C87.6539 132.922 88.2917 134.216 89.7163 135.424C90.8644 136.395 91.3322 136.352 92.2677 137.322C93.6072 138.725 94.5002 140.817 94.5427 142.715C94.6278 147.008 90.4817 150.46 86.8672 151.603C83.6779 152.617 80.8501 151.84 79.5744 151.409C77.0655 148.389 73.5998 144.031 69.8152 138.509C64.9037 131.347 62.1609 127.378 60.056 121.812C57.5046 115.081 53.4436 104.36 58.674 98.212C64.8612 90.9853 80.9139 93.876 82.6999 98.7513Z" fill="#6C6D6D"/>
<path opacity="0.37" d="M68.7096 108.049C71.3248 110.141 70.9208 113.744 71.4737 119.051C72.1115 125.156 73.7274 130.851 75.322 134.453C79.8933 144.808 88.8446 148.389 87.5476 150.956C86.8247 152.38 83.3378 152.725 80.8501 151.948C79.9359 151.668 79.2342 151.258 78.7877 150.956C74.8543 145.779 71.8138 141.356 69.7302 138.25C59.0142 122.33 57.8873 117.131 58.8016 112.859C59.0567 111.673 59.7159 108.545 62.246 107.272C64.2659 106.215 66.9874 106.668 68.7096 108.049Z" fill="#6C6D6D"/>
<path opacity="0.47" d="M75.5772 107.812C74.0888 111.047 72.4517 113.248 71.2823 114.65C68.3694 118.102 66.1369 119.051 64.5423 122.33C63.4367 124.638 63.2453 126.838 63.224 128.219C62.5649 127.162 61.9058 126.019 61.2679 124.81C59.8434 122.071 58.7803 119.482 57.9936 117.131C63.8619 114.024 69.7089 110.918 75.5772 107.812Z" fill="#6C6D6D"/>
<path d="M36.9656 146.965C39.0068 148.734 41.0904 150.503 43.2166 152.272C45.2578 153.976 47.2989 155.659 49.3188 157.277C48.6384 158.053 47.5753 159.24 46.2783 160.663C43.8757 163.274 43.2379 163.813 42.4937 165.086C42.1323 165.711 40.1337 169.184 41.1967 170.544C42.6 172.334 49.0424 169.853 53.2522 167.157C55.8249 165.496 59.9497 162.217 63.2665 155.961C58.1424 150.568 52.9971 145.153 47.873 139.76C44.2159 142.155 40.5801 144.571 36.9656 146.965Z" fill="#191919"/>
<path d="M56.0162 95.5586C52.6143 97.6942 49.8716 99.8083 40.4951 108.502C25.2929 122.567 23.8471 125.005 23.4006 128.348C22.6564 133.892 24.9102 139.954 29.035 143.794C30.0555 144.743 34.2016 148.583 39.921 148.065C44.7049 147.634 51.0835 144.118 50.8071 139.264C50.637 136.093 47.6603 133.137 43.6631 131.735C51.8702 124.142 59.3756 119.396 64.9249 116.397C71.8776 112.644 76.3 111.328 78.2986 106.604C80.765 100.757 78.575 92.0208 73.4722 89.5399C69.0072 87.3827 63.7768 90.6833 56.0162 95.5586Z" fill="white" stroke="#191919" stroke-width="2"/>
<path opacity="0.42" d="M66.5409 93.1641C66.5409 97.1549 65.903 102.505 62.8413 107.51C55.8249 118.9 42.9403 118.209 39.6659 128.478C39.2832 129.707 37.9012 135.381 40.6652 138.53C42.1961 140.256 44.5774 140.752 45.2365 143.082C45.6192 144.42 45.2365 145.714 44.8538 146.62C47.8092 145.951 50.0842 143.643 50.5733 140.817C51.3387 136.352 47.1076 133.461 46.7886 133.245C45.4492 132.361 44.1309 132.08 43.3017 131.972C52.5506 123.106 60.864 118.08 67.0299 115.081C71.2823 113.011 76.4276 110.94 78.4475 105.849C80.1485 101.534 78.8728 96.9392 77.5758 93.876C73.8975 93.6171 70.2192 93.4014 66.5409 93.1641Z" fill="#6C6D6D"/>
<path opacity="0.5" d="M70.7082 98.7729C71.0696 100.779 71.3248 103.799 70.1341 106.927C68.1355 112.169 63.3729 114.219 58.2275 117.735C54.5067 120.259 49.4038 124.379 44.0884 131.002C45.6618 129.707 47.8517 127.96 50.5307 125.975C55.5485 122.265 58.3338 120.216 62.3948 118.015C68.4332 114.779 71.4524 113.162 71.6225 113.075C72.3028 112.773 73.7486 112.148 75.2157 110.767C75.6409 110.357 76.8741 109.149 77.8522 107.035C78.2136 106.237 81.1903 99.9593 78.6176 97.6942C77.0442 96.2705 73.7061 96.7235 70.7082 98.7729Z" fill="#6C6D6D"/>
<path d="M60.2686 39.3415C62.7988 38.8237 66.6472 38.3276 71.2823 38.8022C75.3008 39.212 82.6786 39.9455 88.4406 45.5758C89.9714 47.0859 92.693 49.804 93.671 54.1831C94.8829 59.6193 92.7355 64.2789 91.8637 65.9184C88.3343 72.5626 82.8062 72.5411 80.2973 78.7539C80.0634 79.3363 79.383 81.1052 77.7671 82.7879C76.0024 84.5999 73.536 85.8511 73.0683 85.355C72.8557 85.1177 72.962 84.4489 74.3227 82.4211C73.9825 82.6369 72.5793 83.5429 70.8996 83.1546C68.582 82.6369 67.0299 80.0051 67.4764 78.2146C67.5827 77.7615 67.8804 77.0712 71.4524 74.914C73.0895 73.9217 73.9187 73.4255 75.4283 72.7137C79.3193 70.88 86.3782 64.6241 85.3576 58.778C84.7623 55.4128 81.6155 52.8888 79.0428 51.8102C73.9187 49.6961 70.5806 53.1477 66.5834 51.4435C64.2446 50.4296 61.5231 47.6036 60.2686 39.3415Z" fill="white" stroke="#191919" stroke-width="2"/>
<path opacity="0.29" d="M62.3523 42.8577C64.3722 42.8577 67.3913 43.0303 70.9421 43.8069C75.7898 44.8855 80.0847 46.2661 84.0819 49.9334C87.4413 53.0182 88.0578 57.3974 88.2492 58.7564C88.4193 60.0076 89.0359 64.3005 86.7396 68.2482C85.2725 70.7506 83.8055 71.1389 79.2767 74.9572C76.9804 76.8987 76.13 78.9049 73.3234 80.5228C70.5168 82.1407 69.4112 81.6661 69.071 81.472C67.5402 80.6522 67.4764 78.2577 67.4551 77.9341C67.9654 77.438 68.7734 76.7045 69.8152 75.9279C73.2596 73.3393 74.8117 73.4687 77.7459 71.6135C78.894 70.88 82.3597 68.6149 84.2732 64.4299C84.8261 63.2219 85.5702 61.4961 85.3151 59.2526C85.0387 56.8797 83.7842 55.3049 83.3377 54.744C80.6587 51.465 76.5127 50.9905 75.6835 50.9042C71.2823 50.4943 69.4112 52.8241 66.4133 51.2925C65.0951 50.6237 64.3296 49.5883 63.9469 49.0921C62.0971 46.5466 62.2672 43.6775 62.3523 42.8577Z" fill="#6C6D6D"/>
<path opacity="0.24" d="M65.01 49.955C65.1163 48.7038 69.9853 48.0566 73.3234 48.0351C76.6615 48.0135 80.4249 47.9919 83.444 50.71C85.1875 52.2632 85.8679 54.0106 85.9955 54.3557C87.909 59.3605 84.5071 64.2574 84.1032 64.7967C84.5497 64.1063 85.9955 61.6903 85.4214 58.6702C84.8473 55.5422 82.5085 53.838 81.3604 53.0182C80.68 52.5221 78.405 50.9257 75.2157 50.8179C71.5799 50.71 69.9853 52.6515 67.0937 51.5945C66.9661 51.5298 64.9462 50.7747 65.01 49.955Z" fill="#6C6D6D"/>
<path d="M4.1799 24.3488C3.43573 23.0976 2.54273 21.2855 1.88362 18.9773C-0.0724722 11.9879 1.71352 4.95539 2.52147 4.97696C2.8404 4.97696 3.24437 6.07714 3.64835 10.672C4.09485 9.09725 4.32873 7.80292 4.47756 6.87532C4.62639 5.90457 4.71144 5.1064 5.26425 4.28665C5.68949 3.63949 6.24229 3.22961 6.64627 2.99232C7.00772 2.66874 7.36917 2.32358 7.73062 2C8.11333 2.32358 8.43226 2.64717 8.70867 2.99232C11.6003 6.5733 10.0482 12.0526 9.62293 13.4117C10.1119 13.0881 10.7285 12.5919 11.2813 11.8585C12.2807 10.5642 12.3232 9.50712 12.5571 9.5287C13.0036 9.57184 13.5564 13.347 12.2381 17.1221C11.8342 18.287 11.3451 19.193 10.9624 19.8186C10.8774 21.9758 10.8349 29.483 16.1078 36.3861C16.5968 37.0117 24.0597 46.525 34.074 46.0504C40.6014 45.7484 42.8339 41.585 47.1713 43.2892C50.5307 44.6051 52.9758 48.5744 53.0609 52.6947C53.1672 56.9875 50.7008 60.9784 46.8099 62.8336C44.0246 63.0709 39.9423 63.1572 35.1371 62.3806C29.6728 61.4961 18.2978 59.6409 11.8129 50.6884C8.96381 46.7407 7.64557 42.2321 7.11403 39.9023C7.02898 39.514 6.9652 39.2336 6.85889 38.7159C6.19977 35.5879 5.30677 30.9499 4.1799 24.3488Z" fill="white" stroke="#191919" stroke-width="2"/>
<path d="M6.4762 4.65339C6.88017 4.65339 6.88017 4.00623 6.4762 4.00623C6.07222 4.00623 6.07222 4.65339 6.4762 4.65339V4.65339Z" fill="#161616"/>
<path d="M6.53996 3.07862C5.92337 5.53785 5.58318 8.01865 5.56192 10.5426C5.56192 10.8446 6.02968 10.8446 6.05094 10.5426C6.0722 8.06179 6.39113 5.60256 7.00773 3.20805C7.07151 2.90604 6.60375 2.77661 6.53996 3.07862V3.07862Z" fill="#161616"/>
<path d="M8.41099 3.07862C7.94323 5.42999 7.66683 7.80293 7.64557 10.1974C7.64557 10.4995 8.11333 10.4995 8.13459 10.1974C8.17711 7.84608 8.411 5.51628 8.87876 3.20806C8.92128 2.88447 8.47478 2.75504 8.41099 3.07862V3.07862Z" fill="#161616"/>
<path opacity="0.24" d="M1.92596 7.00476C2.3512 7.02633 2.11732 11.3408 3.05284 16.8417C4.15846 23.3781 6.49726 27.9945 7.83675 31.4029C10.2181 37.4863 14.8532 49.2863 25.4416 54.5283C36.2426 59.8998 47.8728 55.7148 51.4873 54.2479C51.5936 54.9166 51.7424 56.664 50.8707 58.5623C50.0628 60.3312 48.8083 61.3235 48.2342 61.6903C47.2349 62.1001 45.7466 62.6179 43.8756 62.8983C40.9627 63.3298 38.6664 62.9199 36.6891 62.5316C29.9916 61.1941 26.6322 60.5469 23.5067 59.1232C20.2537 57.6563 16.0863 55.7579 12.5994 51.5513C9.19751 47.4742 8.15568 43.2892 6.32716 35.8684C5.17902 31.2303 4.62622 27.3042 4.32855 24.5214C3.11663 22.472 1.56451 19.2146 1.13927 15.008C0.714038 10.9093 1.52199 7.00476 1.92596 7.00476Z" fill="#6C6D6D"/>
<path opacity="0.4" d="M5.13672 4.41609C5.39186 4.1788 5.647 3.9415 5.92341 3.70421C4.62644 8.79525 3.9248 11.3408 3.81849 11.3192C3.71218 11.276 4.13741 8.9894 5.13672 4.41609Z" fill="#6C6D6D"/>
<path opacity="0.44" d="M24.655 59.6625C27.334 60.3959 31.1399 61.1078 35.7112 60.849C43.0678 60.4391 48.5959 57.7426 51.53 56.0168C51.4449 56.7071 51.1473 58.5623 49.6802 60.2665C48.0005 62.2296 45.8956 62.7042 45.2365 62.812C43.1954 62.8767 40.9841 62.8336 38.6241 62.6394C33.1172 62.1649 28.3971 60.9568 24.655 59.6625Z" fill="#6C6D6D"/>
<path d="M56.9943 68.8738C63.3941 65.2928 73.6423 60.0939 86.8672 55.7795C107.385 49.0921 119.058 49.7608 139.15 45.4464C150.27 43.0735 166.45 38.6296 185.65 29.6124C185.692 31.9422 185.799 34.3367 185.99 36.8391C186.394 42.34 187.138 47.4095 188.031 52.0043C186.117 55.3265 184.183 58.6702 182.269 61.9923C182.843 67.7305 183.396 73.4687 183.97 79.2069C172.467 79.4657 160.688 79.8972 148.654 80.5875C119.015 82.2701 90.9069 85.1392 64.4572 88.8497C61.9696 82.2054 59.4819 75.5396 56.9943 68.8738Z" fill="#606FCC"/>
<g opacity="0.28">
<path d="M81.5517 60.2449C97.9233 55.4343 114.869 52.8457 131.9 52.5221C132.304 52.5221 132.304 51.8749 131.9 51.8749C114.805 52.1985 97.7958 54.8087 81.3816 59.6193C80.9776 59.7272 81.1477 60.3528 81.5517 60.2449V60.2449Z" fill="#40487C"/>
</g>
<g opacity="0.28">
<path d="M126.202 56.1462C141.191 52.3064 157.435 55.9305 171.851 49.4804C172.233 49.3078 171.893 48.7469 171.532 48.9195C157.18 55.348 140.936 51.7023 126.031 55.5206C125.628 55.6285 125.798 56.2541 126.202 56.1462V56.1462Z" fill="#40487C"/>
</g>
<g opacity="0.28">
<path d="M156.478 60.3743C163.793 58.7349 171.341 58.4113 178.782 59.4683C179.186 59.533 179.356 58.9074 178.952 58.8427C171.404 57.7641 163.75 58.0661 156.308 59.7488C155.904 59.835 156.075 60.4606 156.478 60.3743V60.3743Z" fill="#40487C"/>
</g>
<path d="M45.8531 42.944C46.8949 43.6128 48.6384 44.9071 49.9779 47.129C51.8702 50.257 53.3373 55.8658 50.3394 59.7272C48.7235 61.7981 46.4059 62.6394 44.8113 62.963C45.9169 66.544 46.9587 70.4701 47.7879 74.6983C49.7653 84.6215 50.1905 93.574 49.9566 101.016C54.4642 101.815 60.6088 102.419 67.8591 101.707C74.3652 101.06 79.7657 99.5495 83.8055 98.1041C82.7849 79.8325 78.5538 66.2636 75.1094 57.6563C74.1314 55.2186 66.7535 37.0764 60.2899 37.9393C58.4189 38.1766 57.4195 39.9023 53.0396 41.4771C50.1267 42.5126 47.5541 42.8362 45.8531 42.944Z" fill="white" stroke="#191919" stroke-width="2"/>
<path opacity="0.36" d="M55.4209 40.8947C57.5046 43.2892 60.4175 47.0212 63.0114 52.0906C69.7301 65.1634 69.4537 77.4595 69.1348 82.1191C68.582 90.144 66.4133 96.8529 64.1383 101.858C67.2 101.577 70.5381 101.124 74.1101 100.434C77.5758 99.7652 80.765 98.967 83.6354 98.1257C83.444 94.8251 83.0188 89.7125 82.0407 83.5429C79.7232 68.9169 75.8961 58.929 72.239 51.6376C66.1794 39.6219 61.842 37.5725 60.3962 38.0903C60.1623 38.1766 59.0992 38.6511 57.9086 39.3199C56.8455 39.9023 56.0163 40.4632 55.4209 40.8947Z" fill="#6C6D6D"/>
<path opacity="0.49" d="M69.7514 47.7115C70.6232 54.6793 71.58 60.3743 72.3029 64.3005C74.8543 78.2146 76.9167 83.737 74.8968 91.4167C73.7912 95.6449 71.8776 98.8376 70.4531 100.865C72.154 100.757 74.0888 100.542 76.1725 100.11C79.1279 99.5063 81.6581 98.6218 83.6992 97.7374C83.274 84.2979 80.5737 68.4639 72.5367 52.7594C71.6437 51.012 70.7082 49.3294 69.7514 47.7115Z" fill="#6C6D6D"/>
<path d="M46.2996 69.521C45.9594 72.9078 45.8106 76.7908 46.0232 81.0621C46.3634 87.6632 47.4903 93.3151 48.7234 97.8237C51.126 97.7158 54.698 97.6295 59.0142 97.8237C68.2843 98.2336 72.8981 99.5495 77.1718 100.024C90.0564 101.491 93.9686 94.782 108.342 92.6032C114.635 91.654 124.224 91.3736 136.79 95.6233C145.741 100.563 154.671 105.525 163.622 110.465C164.452 108.718 166.642 104.748 171.213 101.944C177.676 97.9531 184.268 99.1396 185.841 99.4632C184.565 96.0979 182.545 89.3458 184.225 81.321C184.82 78.495 185.735 76.1005 186.67 74.1806C181.44 71.9586 174.062 69.1542 164.983 66.7597C149.228 62.5747 136.981 61.8844 124.607 61.2588C101.028 60.0508 83.3377 62.2727 78.5325 62.8983C65.4778 64.6672 54.5279 67.2343 46.2996 69.521Z" fill="#788BFF"/>
<path opacity="0.25" d="M108.809 79.1422C108.809 79.2069 126.606 81.6877 144.38 84.4273C151.376 85.506 158.562 86.6709 166.876 91.0069C172.255 93.8112 176.252 96.9824 178.91 99.3553C179.845 99.0749 181.206 98.7729 182.864 98.8807C183.885 98.9454 184.757 99.118 185.458 99.3337C184.778 97.3707 184.098 94.933 183.672 92.0639C183.268 89.3674 183.205 86.9729 183.268 84.9882C123.842 80.2208 108.809 79.0774 108.809 79.1422Z" fill="#40487C"/>
<path opacity="0.28" d="M46.1083 78.2361C47.5328 80.5443 49.0849 81.7955 50.1905 82.4858C53.9114 84.8372 57.292 83.9527 66.4771 85.1176C68.2844 85.3549 69.7514 85.5922 70.6657 85.7432C62.735 86.5414 54.7831 87.3396 46.8524 88.1162C46.6611 86.6924 46.491 85.1824 46.3634 83.6076C46.2146 81.7308 46.1295 79.9187 46.1083 78.2361Z" fill="#40487C"/>
<g opacity="0.28">
<path d="M74.0676 86.0452C80.3823 86.5414 86.7396 86.0021 92.8843 84.4273C93.2883 84.3195 93.1182 83.6939 92.7142 83.8017C86.6121 85.3549 80.3398 85.8942 74.0676 85.3981C73.6636 85.3549 73.6636 86.0021 74.0676 86.0452V86.0452Z" fill="#40487C"/>
</g>
<g opacity="0.28">
<path d="M98.8376 84.5568C105.918 84.0606 113.019 84.3842 120.036 85.5275C120.44 85.5922 120.61 84.9666 120.206 84.9019C113.147 83.737 105.982 83.4134 98.8376 83.9096C98.4124 83.9527 98.4124 84.5999 98.8376 84.5568V84.5568Z" fill="#40487C"/>
</g>
<g opacity="0.28">
<path d="M91.6724 75.5396C105.28 73.1451 119.27 73.5765 132.708 76.8123C133.112 76.8986 133.282 76.2946 132.878 76.1868C119.334 72.9294 105.216 72.5195 91.5023 74.914C91.0983 74.9787 91.2684 75.6043 91.6724 75.5396V75.5396Z" fill="#40487C"/>
</g>
<g opacity="0.28">
<path d="M148.25 105.568C153.098 107.725 157.457 110.853 161.05 114.779C161.326 115.081 161.773 114.628 161.496 114.326C157.86 110.357 153.459 107.186 148.569 105.007C148.186 104.835 147.867 105.396 148.25 105.568V105.568Z" fill="#40487C"/>
</g>
<path d="M55.2721 22.321C56.8455 27.5846 57.4195 30.6263 59.652 35.4369C60.6939 37.6804 61.6932 39.4709 62.3948 40.6358C60.1198 41.7144 56.4202 43.095 51.6788 43.2676C48.8723 43.3755 46.4697 43.0087 44.6199 42.5989C44.8113 41.1535 44.9176 39.363 44.7688 37.3137C44.5774 34.7466 44.0458 32.5894 43.5143 30.993C40.9841 30.6694 38.454 30.3458 35.9238 30.0223C35.4348 28.9221 34.9245 27.8219 34.4355 26.7001C33.7339 26.6786 33.0535 26.657 32.3518 26.6354C32.8834 25.1254 33.6701 22.7309 34.5843 19.7755C36.2853 14.2098 36.264 13.4117 37.1783 12.1605C39.7084 8.73051 45.4279 6.55172 49.1487 8.38536C51.4024 9.48554 52.7207 13.7784 55.2721 22.321Z" fill="white" stroke="#161616" stroke-width="2"/>
<path d="M32.4369 26.9806C33.7338 27.0022 35.0308 26.9159 36.3065 26.7217C36.7105 26.657 36.5404 26.0314 36.1364 26.0961C34.9032 26.2903 33.67 26.355 32.4369 26.3334C32.0329 26.3334 32.0329 26.9806 32.4369 26.9806V26.9806Z" fill="#161616"/>
<path d="M31.9054 16.9927C32.6708 16.5828 33.6701 16.7769 34.2016 17.5104C34.4355 17.834 34.9883 17.5104 34.7544 17.1868C34.0315 16.1729 32.692 15.8493 31.5864 16.4318C31.225 16.6259 31.5439 17.1868 31.9054 16.9927V16.9927Z" fill="#161616"/>
<path d="M32.7771 20.1422C32.7133 19.9049 32.7133 19.6676 32.7771 19.4303C32.8196 19.3225 32.8621 19.193 32.9259 19.1067C32.9684 19.042 33.011 18.9989 33.0535 18.9557C33.011 18.9557 32.9897 18.9773 32.9897 19.042C32.9897 19.495 32.7984 19.8833 32.4582 20.1854C32.6495 20.2716 32.8196 20.3364 33.011 20.4226C33.011 20.0128 33.096 19.6245 33.2874 19.2578C33.4787 18.891 32.9259 18.5674 32.7346 18.9342C32.5007 19.4088 32.3731 19.9049 32.3731 20.4442C32.3731 20.7462 32.7133 20.8541 32.9259 20.6815C33.2661 20.3795 33.5213 19.9696 33.6063 19.5166C33.6701 19.1283 33.7126 18.5459 33.2874 18.3733C32.8834 18.2223 32.5007 18.589 32.3306 18.9126C32.0967 19.3656 32.0542 19.8618 32.1818 20.3579C32.2455 20.7247 32.8621 20.5521 32.7771 20.1422V20.1422Z" fill="#161616"/>
<path d="M38.0925 17.9203C39.0706 17.6183 40.1124 17.9418 40.7078 18.8047C40.9416 19.1499 41.4944 18.8263 41.2606 18.4812C40.5164 17.4025 39.1769 16.9064 37.9225 17.2947C37.5397 17.4025 37.7098 18.0281 38.0925 17.9203V17.9203Z" fill="#161616"/>
<path d="M38.2201 20.8972C38.1989 20.5952 38.2414 20.2932 38.4115 20.0343C38.454 19.9696 38.4965 19.9049 38.5603 19.8402C38.5391 19.7539 38.5391 19.7539 38.5391 19.8402C38.5178 19.9696 38.5178 20.1206 38.4965 20.2716C38.4753 20.4011 38.4327 20.5521 38.369 20.6815C38.3477 20.7462 38.3264 20.7894 38.2839 20.8325C38.3477 20.9835 38.3902 20.9835 38.4327 20.8325C38.5391 20.7247 38.6028 20.4874 38.6666 20.3579C38.7517 20.2069 38.8155 20.0559 38.9005 19.8833C39.0706 19.5598 38.6666 19.2362 38.3902 19.495C38.2201 19.6676 38.1138 19.8402 38.05 20.0775C37.9437 20.4874 38.5391 20.6384 38.6666 20.2501C38.7091 20.1206 38.7517 20.0559 38.858 19.9481C38.6879 19.8186 38.5178 19.6892 38.3477 19.5598C38.1563 19.9265 37.9437 20.2932 37.7949 20.6815C37.6886 20.9404 37.7098 21.2424 37.965 21.3934C38.6028 21.8248 39.0281 20.9188 39.1344 20.4226C39.2407 19.9481 39.262 18.9126 38.4753 19.1283C37.8374 19.3225 37.5823 20.2932 37.6248 20.8757C37.6035 21.3071 38.2414 21.3071 38.2201 20.8972V20.8972Z" fill="#161616"/>
<path d="M36.2853 13.5411C36.4554 12.3978 36.9019 10.5426 38.1563 8.62266C38.6028 7.95392 39.5171 6.50859 41.0267 5.53784C43.8758 3.68263 48.2557 3.83363 51.445 6.09871C54.5492 8.32065 56.1013 12.3115 55.4422 16.2592C49.0424 15.3532 42.6638 14.4472 36.2853 13.5411Z" fill="#788BFF"/>
<path d="M25.8457 13.4117C35.6687 14.6413 45.4917 15.8709 55.3146 17.1005C56.5266 17.2515 56.5266 15.31 55.3146 15.159C45.4917 13.9294 35.6687 12.6998 25.8457 11.4702C24.6125 11.3192 24.6338 13.2607 25.8457 13.4117V13.4117Z" fill="#161616"/>
<path d="M49.0424 16.0003C47.2989 16.6259 46.2996 17.8124 45.1302 19.2362C42.6638 22.2131 43.3867 23.3133 41.6645 25.1685C38.9005 28.1239 36.0939 26.3766 33.6275 29.2672C31.5439 31.7265 31.799 35.0486 31.8841 35.782C31.9691 36.5155 32.3306 39.4709 34.7757 41.4987C36.8806 43.246 39.7297 43.6559 39.921 43.2676C39.9848 43.1166 39.7509 42.7714 38.1776 41.736C38.6453 42.0595 39.347 42.4478 40.2825 42.6204C41.3456 42.8146 42.3661 42.6204 42.3874 42.4694C42.3874 42.3616 41.8133 42.3616 41.3668 41.887C41.1117 41.6065 40.9841 41.2829 40.9416 41.0025C41.7921 41.5634 42.8764 42.038 43.9183 41.736C46.7248 40.8946 47.2351 34.7034 47.3839 32.6541C47.9155 26.0098 46.0019 22.3857 48.3195 20.0559C48.5108 19.8618 49.4676 18.9126 50.4882 19.1067C51.8064 19.344 52.8057 21.3718 52.3592 22.7093C51.9978 23.8526 50.6795 24.1762 50.7646 24.3919C50.8921 24.6724 53.1034 24.2409 54.9532 22.774C55.6335 22.2347 56.1863 21.8033 56.4627 21.0051C56.973 19.6245 56.3777 18.0497 55.591 17.1221C53.9964 15.1806 50.9347 15.31 49.0424 16.0003Z" fill="#161616" stroke="#161616" stroke-width="2"/>
<path opacity="0.22" d="M51.6576 24.5645C51.2324 24.6077 50.637 24.6292 50.6158 24.4782C50.5945 24.4135 50.7433 24.3056 50.7433 24.3056C50.7433 24.3056 50.2331 24.9312 49.6165 25.0175C49.3188 25.0607 49.0636 24.9528 48.8936 24.8665C49.9992 27.1963 51.126 30.0007 52.0828 33.215C53.1459 36.7528 53.7413 39.9886 54.0814 42.7499C55.2296 42.7499 56.8242 42.6204 58.6315 42.0596C60.1198 41.585 61.3105 40.9594 62.1822 40.4201C59.8009 36.7312 58.6102 33.7758 57.9511 31.7696C57.6322 30.8204 56.9731 28.5985 56.6329 27.5199C56.0163 25.5353 55.5485 23.8958 55.2083 22.774C55.0382 22.925 54.7618 23.1623 54.4216 23.3996C53.9326 23.7448 52.9546 24.4135 51.6576 24.5645Z" fill="#6D6C6C"/>
<path d="M44.5987 4.37293C47.1501 4.86909 49.0636 6.89687 49.3613 9.29139C49.7015 12.1389 47.5966 14.0804 47.4052 14.253C50.1267 14.5766 52.827 14.9217 55.5485 15.2453C55.591 14.6197 55.6123 13.7568 55.4422 12.7645C54.9319 9.57183 53.0396 7.60876 52.6356 7.19888C52.019 6.55172 49.7653 4.45921 46.4484 4.26507C45.683 4.24349 45.0452 4.30821 44.5987 4.37293Z" fill="#40487C"/>
</svg>
