<svg width="219" height="160" viewBox="0 0 219 160" fill="none" xmlns="http://www.w3.org/2000/svg">
<path d="M136.042 45.4253L131.388 38.2464C128.651 34.0257 123.252 32.4154 118.651 34.4477L110.824 37.9044C108.852 38.7752 106.656 39.0015 104.548 38.5517L96.1874 36.7675C91.2682 35.7179 86.3086 38.3937 84.4921 43.0842L81.4008 51.0621C80.6224 53.0721 79.2356 54.7862 77.427 55.9588L70.2453 60.6134C66.0247 63.3496 64.4171 68.7449 66.4494 73.3461L69.9034 81.1727C70.7743 83.1444 71.0034 85.3404 70.5536 87.4484L68.7699 95.8163C67.7203 100.736 70.3929 105.688 75.0834 107.504L83.0646 110.594C85.0746 111.372 86.7871 112.764 87.9596 114.573L92.6124 121.752C95.3486 125.972 100.749 127.582 105.35 125.55L113.175 122.093C115.146 121.222 117.341 120.997 119.449 121.446L127.819 123.232C132.738 124.282 137.687 121.602 139.504 116.911L142.595 108.934C143.373 106.924 144.768 105.21 146.577 104.038L153.753 99.3838C157.974 96.6476 159.583 91.2509 157.551 86.6497L154.096 78.826C153.225 76.8543 152.995 74.657 153.445 72.549L155.233 64.1813C156.283 59.2621 153.604 54.3097 148.913 52.4932L140.935 49.4045C138.925 48.6261 137.214 47.2339 136.042 45.4253Z" fill="#788BFF" fill-opacity="0.25"/>
<path d="M130.381 74.3501L103.841 88.6964L96.6675 75.4261M131.388 38.2464L136.042 45.4253C137.214 47.2339 138.925 48.6261 140.935 49.4045L148.913 52.4932C153.604 54.3097 156.283 59.2621 155.233 64.1813L153.445 72.549C152.995 74.657 153.225 76.8543 154.096 78.826L157.551 86.6497C159.583 91.2509 157.974 96.6476 153.753 99.3838L146.577 104.038C144.768 105.21 143.373 106.924 142.595 108.934L139.504 116.911C137.687 121.602 132.738 124.282 127.819 123.232L119.449 121.446C117.341 120.997 115.146 121.222 113.175 122.093L105.35 125.55C100.749 127.582 95.3486 125.972 92.6124 121.752L87.9596 114.573C86.7871 112.764 85.0746 111.372 83.0646 110.594L75.0834 107.504C70.3929 105.688 67.7203 100.736 68.7699 95.8163L70.5536 87.4484C71.0034 85.3404 70.7743 83.1444 69.9034 81.1727L66.4494 73.3461C64.4171 68.7449 66.0247 63.3496 70.2453 60.6134L77.427 55.9588C79.2356 54.7862 80.6224 53.0721 81.4008 51.0621L84.4921 43.0842C86.3086 38.3937 91.2682 35.7179 96.1874 36.7675L104.548 38.5517C106.656 39.0015 108.852 38.7752 110.824 37.9044L118.651 34.4477C123.252 32.4154 128.651 34.0257 131.388 38.2464Z" stroke="#788BFF" stroke-width="8" stroke-linecap="round" stroke-linejoin="round"/>
<path d="M172.306 19.9851C173.371 18.9673 174.457 17.9561 175.539 16.9547C176.208 16.3394 176.941 15.8061 177.483 15.05C177.632 14.8405 177.657 14.4966 177.939 14.4411L177.932 14.4444C178.094 14.2283 178.22 13.973 178.424 13.8094C179.187 13.1811 179.88 12.3923 180.703 11.8885C180.734 11.8656 180.726 11.7805 180.767 11.7445C180.971 11.5809 181.738 11.0312 182.175 10.6254C183.195 9.68621 184.251 8.78633 185.658 8.28306C185.877 8.20135 188.505 6.5887 189.588 7.82768C190.717 9.12566 188.853 11.4202 188.521 11.6132C187.726 12.0875 186.764 12.3913 186.274 13.2032C185.551 14.3949 184.39 15.0785 183.44 16.0079C182.586 16.8425 181.621 17.5525 180.78 18.3968C179.99 19.1921 179.385 20.1972 178.523 20.9138C177.781 21.5322 176.763 21.8393 175.926 22.3496C175.727 22.4706 175.723 22.8768 175.516 23.0174C175.347 23.1319 175.078 23.3512 174.824 23.3772C174.713 23.3902 174.597 23.3901 174.571 23.4916C174.456 23.9599 171.731 25.7329 170.427 24.2121C169.143 22.7306 171.383 20.8687 172.306 19.9851Z" fill="#788BFF"/>
<path d="M185.795 37.2551C186.901 36.6631 188.005 36.0875 189.12 35.5152C189.802 35.1686 190.529 34.9137 191.136 34.3934C191.299 34.2494 191.39 33.9383 191.646 33.9844C191.826 33.8404 191.981 33.644 192.183 33.5623C192.955 33.2288 193.691 32.7348 194.487 32.5357C194.517 32.5292 194.526 32.444 194.566 32.4244C194.775 32.3394 195.525 32.0813 195.981 31.8523C197.031 31.3193 198.097 30.8354 199.378 30.8299C199.578 30.8301 202.112 30.1934 202.792 31.7006C203.498 33.2603 201.469 34.7686 201.157 34.847C200.392 35.0232 199.516 34.9865 198.945 35.5789C198.103 36.4396 196.983 36.6909 195.999 37.2404C195.113 37.7343 194.157 38.0676 193.284 38.5713C192.462 39.0423 191.75 39.7754 190.884 40.1546C190.132 40.4783 189.216 40.4284 188.407 40.6341C188.213 40.6798 188.137 41.0564 187.932 41.1152C187.764 41.1642 187.494 41.2786 187.282 41.2195C187.186 41.1932 187.084 41.1538 187.042 41.239C186.849 41.6318 184.209 42.3765 183.397 40.5449C182.58 38.7559 184.836 37.7685 185.795 37.2551Z" fill="#788BFF"/>
<path d="M195.866 59.8307C197.414 59.5338 198.969 59.2501 200.52 58.9763C201.471 58.8067 202.437 58.7518 203.363 58.3923C203.615 58.2942 203.846 58.0127 204.13 58.1178L204.123 58.121C204.392 58.023 204.656 57.8791 204.937 57.84C205.984 57.7131 207.065 57.4159 208.086 57.4233C208.126 57.4201 208.171 57.3415 208.228 57.3382C208.506 57.309 209.501 57.2476 210.138 57.1335C211.598 56.8792 213.06 56.6805 214.59 56.9995C214.829 57.0455 218.097 57.0809 218.29 58.7188C218.485 60.4287 215.473 61.386 215.066 61.3725C214.083 61.3554 213.065 61.0958 212.144 61.5176C210.791 62.1486 209.362 62.1049 207.974 62.3887C206.723 62.6465 205.454 62.7273 204.21 62.9982C203.04 63.2494 201.899 63.7857 200.715 63.9386C199.694 64.0688 198.624 63.7863 197.584 63.7724C197.34 63.7689 197.088 64.1093 196.821 64.1255C196.601 64.1351 196.236 64.1741 196.006 64.0593C195.907 64.0101 195.802 63.9478 195.713 64.023C195.328 64.3634 191.884 64.413 191.667 62.4148C191.444 60.4756 194.526 60.0916 195.866 59.8307Z" fill="#788BFF"/>
<path d="M24.1996 89.8392C22.7398 90.0402 21.2727 90.2608 19.8156 90.4847C18.9178 90.6255 18.0439 90.868 17.1145 90.822C16.8581 90.808 16.5732 90.6137 16.3546 90.7996L16.3614 90.7963C16.0914 90.7888 15.8129 90.7288 15.5578 90.7868C14.5915 90.9929 13.5427 91.0447 12.6363 91.3755C12.5994 91.3852 12.5376 91.326 12.484 91.3356C12.2289 91.3937 11.3212 91.6524 10.7317 91.7419C9.36152 91.9564 7.99995 92.2232 6.73082 93.0112C6.53071 93.1317 3.63319 94.1856 3.92898 95.8047C4.2428 97.496 7.19899 97.4642 7.55639 97.3247C8.42263 96.9971 9.25864 96.4335 10.1993 96.5548C11.5821 96.7302 12.8395 96.2468 14.1583 96.0813C15.3432 95.9317 16.4992 95.6182 17.6837 95.485C18.7978 95.3614 19.9611 95.513 21.0581 95.2845C22.0041 95.0882 22.878 94.4821 23.7979 94.1449C24.0169 94.0638 24.3369 94.3139 24.5758 94.2394C24.771 94.1779 25.1099 94.1038 25.2884 93.921C25.3672 93.8427 25.4398 93.7513 25.5353 93.7942C25.9734 93.9956 29.0571 92.9653 28.6775 90.9987C28.3167 89.0714 25.4652 89.6669 24.1996 89.8392Z" fill="#788BFF"/>
<path d="M29.3263 111.145C28.1753 111.642 27.0373 112.149 25.8956 112.665C25.1998 112.984 24.5481 113.394 23.7634 113.545C23.5489 113.584 23.2487 113.462 23.1257 113.69C22.9008 113.742 22.6506 113.741 22.4609 113.848C21.7195 114.245 20.8749 114.514 20.2241 115.013C20.2002 115.032 20.1281 114.986 20.0875 115.006C19.891 115.116 19.2222 115.543 18.7594 115.758C17.6885 116.248 16.6465 116.782 15.8452 117.781C15.7209 117.938 13.6459 119.525 14.4028 120.995C15.1849 122.518 17.6276 121.869 17.8832 121.673C18.497 121.184 19.0135 120.475 19.8328 120.396C21.0304 120.273 21.9241 119.552 22.9665 119.124C23.9044 118.737 24.7598 118.197 25.6973 117.827C26.5775 117.476 27.5943 117.375 28.4303 116.933C29.1514 116.546 29.6823 115.798 30.3466 115.292C30.5034 115.168 30.8455 115.343 31.019 115.219C31.1619 115.118 31.4193 114.979 31.5049 114.776C31.5441 114.684 31.577 114.579 31.6698 114.599C32.0975 114.693 34.323 113.089 33.3944 111.314C32.5019 109.562 30.3255 110.713 29.3263 111.145Z" fill="#788BFF"/>
<path d="M40.7341 133.075C39.5384 134.103 38.3491 135.143 37.1696 136.187C36.4449 136.826 35.8014 137.548 34.9437 138.049C34.7098 138.186 34.3461 138.191 34.2515 138.479L34.2582 138.476C34.014 138.626 33.7372 138.742 33.5317 138.938C32.7809 139.679 31.8755 140.341 31.2464 141.144C31.2189 141.173 31.1292 141.16 31.0913 141.202C30.8957 141.402 30.2283 142.143 29.7429 142.57C28.6351 143.555 27.5697 144.576 26.8676 145.972C26.755 146.188 24.7495 148.768 25.9115 149.939C27.129 151.155 29.7524 149.393 29.9949 149.066C30.5934 148.285 31.0233 147.327 31.9265 146.869C33.2623 146.202 34.1177 145.056 35.2033 144.146C36.1831 143.327 37.0362 142.384 38.0223 141.578C38.9471 140.819 40.0766 140.259 40.9333 139.427C41.6701 138.709 42.1149 137.696 42.7513 136.873C42.9 136.68 43.3232 136.694 43.5021 136.495C43.6468 136.329 43.9041 136.068 43.9577 135.816C43.9807 135.708 43.9974 135.587 44.1114 135.564C44.6175 135.474 46.7988 132.809 45.3699 131.396C43.9902 130.015 41.7724 132.188 40.7341 133.075Z" fill="#788BFF"/>
</svg>
